<svg version="1.2" xmlns="http://www.w3.org/2000/svg" viewBox="0 0 1500 1000" width="1500" height="1000">
	<defs>
		<clipPath clipPathUnits="userSpaceOnUse" id="cp1">
			<path d="m1500 1000h-1500v-1000h1500z"/>
		</clipPath>
	</defs>
	<style>
		.s0 { fill: #542323 } 
		.s1 { fill: #eedfc2 } 
		.s2 { fill: #302443 } 
		.s3 { fill: #50699b } 
		.s4 { fill: #b25039 } 
		.s5 { fill: #19283f } 
		.s6 { fill: #ed715d } 
		.s7 { fill: #f3a080 } 
		.s8 { fill: #f48771 } 
		.s9 { fill: #eaba6e } 
		.s10 { fill: #f8bf92 } 
		.s11 { fill: #b54b57 } 
		.s12 { fill: #444444 } 
		.s13 { fill: #dd5b67 } 
		.s14 { fill: #1d1e1e } 
		.s15 { fill: #595959 } 
		.s16 { fill: #d39e50 } 
		.s17 { fill: #e2a060 } 
		.s18 { fill: #36466c } 
		.s19 { opacity: .4;mix-blend-mode: soft-light;fill: #110f0c } 
		.s20 { fill: #d7af62 } 
		.s21 { fill: #cc7158 } 
		.s22 { fill: #eaa28c } 
		.s23 { fill: #141010 } 
	</style>
	<g id="BACKGROUND">
	</g>
	<g id="OBJECTS">
		<path id="&lt;Path&gt;" class="s0" d="m0 999.89c0 0 97.55-563.12 750.23-563.12 652.68 0 749.77 563.12 749.77 563.12z"/>
		<g id="&lt;Clip Group&gt;" clip-path="url(#cp1)">
			<g id="&lt;Group&gt;">
				<path id="&lt;Path&gt;" class="s1" d="m575.78 962.14c-18.14-11.93-41.14-18.21-53.54-36.04-8.83-12.68-10.49-28.87-16.12-43.25-9.12-23.28-29.52-41.83-53.56-48.71-6.26-1.79-12.92-2.91-18.23-6.68-3.43-2.43-6.05-5.81-8.61-9.14-7.94-10.35-15.94-20.93-26.46-28.64-10.52-7.71-24.15-12.27-36.77-8.98-12.06 3.15-21.6 13.25-25.93 24.94-4.33 11.69-3.89 24.75-0.77 36.82 4.76 18.4 15.75 35.12 30.75 46.78 13.01 10.11 29.22 16.86 38.54 30.44 13.07 19.02 10.79 48.78 30.66 60.53 11.9 7.05 26.98 4.2 40.57 6.79 36.69 6.98 55.57 50.95 90.94 62.95 16.22 5.5 33.91 3.53 50.92 1.49 1.51-35.84-11.49-68.98-42.39-89.3z"/>
				<path id="&lt;Path&gt;" class="s2" d="m618.68 1046.01c-14.54-20.58-33.05-37.47-54.79-50.2-11.06-6.48-22.75-12.33-31.89-21.5-9.11-9.13-13.71-21.37-20.57-32.06-12.96-20.17-34.91-25.61-53.49-38.82-20.14-14.33-24.29-39.73-38.43-58.66-8.21-10.99-19.98-17.68-30.8-25.73-13.05-9.7-24.21-21.47-33.68-34.65-2.12-2.94-6.26 0.87-4.17 3.78 7.51 10.45 16.06 20 25.82 28.41 10.19 8.78 22.43 15.15 32.11 24.48 16.9 16.29 20.46 41.34 36.21 58.5 16.17 17.63 42.79 21.07 57.7 40.05 7.44 9.47 11.75 20.92 18.7 30.73 6.65 9.39 15.69 16.19 25.46 22.1 12.07 7.3 24.42 13.83 35.46 22.73 12.36 9.98 23.04 21.66 32.19 34.62 2.09 2.96 6.23-0.85 4.17-3.78z"/>
			</g>
			<g id="&lt;Group&gt;">
				<path id="&lt;Path&gt;" class="s3" d="m622.38 819.38c-10.16-19.19-27.3-35.77-29.59-57.36-1.63-15.36 4.71-30.35 6.69-45.67 3.22-24.8-5.74-50.88-23.5-68.48-4.62-4.58-9.92-8.77-12.76-14.63-1.83-3.78-2.51-8-3.14-12.16-1.99-12.89-3.91-26.01-9.42-37.83-5.51-11.83-15.25-22.39-27.9-25.57-12.09-3.05-25.32 1.21-34.74 9.37-9.42 8.17-15.32 19.82-18.39 31.91-4.69 18.41-3.1 38.36 4.43 55.81 6.53 15.12 17.49 28.84 19.14 45.22 2.3 22.96-14.03 47.96-2.28 67.82 7.05 11.9 21.64 16.67 32.3 25.47 28.8 23.78 24.19 71.42 49.41 98.96 11.57 12.64 28.03 19.42 43.92 25.82 18.58-30.69 23.13-66 5.83-98.68z"/>
				<path id="&lt;Path&gt;" class="s1" d="m619.61 913.54c-2.84-25.04-10.94-48.75-23.86-70.37-6.58-11-14.01-21.75-17.61-34.2-3.59-12.39-1.72-25.33-2.6-38.01-1.64-23.91-18.27-39.24-28.19-59.76-10.76-22.25-2.17-46.52-5.45-69.92-1.91-13.58-9.01-25.11-14.62-37.38-6.76-14.79-10.88-30.47-12.84-46.58-0.44-3.6-5.9-2.26-5.47 1.3 1.56 12.78 4.44 25.27 8.95 37.33 4.71 12.6 12.37 24.08 16.37 36.92 6.97 22.41-1.97 46.09 3.57 68.7 5.7 23.24 27.37 39.07 31.31 62.88 1.96 11.89 0.23 24 1.6 35.93 1.31 11.45 5.95 21.76 11.67 31.64 7.07 12.21 14.75 23.87 20.14 36.99 6.03 14.69 9.77 30.07 11.56 45.84 0.4 3.6 5.87 2.25 5.47-1.31z"/>
			</g>
			<g id="&lt;Group&gt;">
				<path id="&lt;Path&gt;" class="s4" d="m575.76 1020.98c-21.62-2.05-44.88 3.16-64.18-6.79-13.74-7.08-22.78-20.6-34.49-30.68-18.95-16.31-45.67-23.15-70.13-17.98-6.36 1.35-12.78 3.47-19.23 2.63-4.17-0.55-8.07-2.3-11.89-4.05-11.86-5.43-23.88-11.03-36.79-12.92-12.9-1.9-27.08 0.45-36.69 9.27-9.19 8.43-12.9 21.81-11.25 34.17 1.65 12.36 8.14 23.69 16.55 32.9 12.82 14.03 30.36 23.66 49.08 26.95 16.22 2.85 33.7 1.23 48.3 8.86 20.45 10.69 32.36 38.06 55.41 39.15 13.82 0.65 25.81-8.92 39.03-12.99 35.69-11 72.96 19.03 109.83 13.08 16.92-2.73 31.62-12.75 45.7-22.52-15.43-32.38-42.44-55.58-79.25-59.08z"/>
				<path id="&lt;Path&gt;" class="s1" d="m652.92 1075.03c-22.48-11.39-46.75-17.65-71.91-18.73-12.81-0.55-25.87-0.25-38.25-4.07-12.32-3.81-22.11-12.47-33.18-18.71-20.89-11.76-42.83-6.29-65.43-9.28-24.51-3.23-40.06-23.74-61.42-33.85-12.4-5.87-25.93-6.27-39.26-8.32-16.07-2.47-31.44-7.65-45.98-14.86-3.25-1.61-5.13 3.7-1.92 5.29 11.53 5.72 23.55 10.16 36.12 13.02 13.11 2.99 26.91 2.89 39.83 6.61 22.56 6.49 37.43 26.96 59.38 34.75 22.54 8.01 47.67-1.41 69.73 8.39 11.01 4.89 20.18 12.99 30.9 18.4 10.29 5.2 21.45 6.98 32.85 7.63 14.09 0.8 28.05 0.79 41.97 3.49 15.6 3.03 30.5 8.36 44.66 15.53 3.22 1.63 5.11-3.67 1.91-5.29z"/>
			</g>
			<g id="&lt;Group&gt;">
				<path id="&lt;Path&gt;" class="s5" d="m912.22 866.17c20.93-5.77 44.75-4.67 62.03-17.81 12.3-9.35 18.86-24.24 28.65-36.19 15.84-19.35 40.97-30.72 65.95-29.86 6.51 0.23 13.19 1.21 19.4-0.74 4.01-1.26 7.55-3.67 11.01-6.05 10.74-7.4 21.61-15 33.99-19.1 12.39-4.1 26.76-4.25 37.75 2.77 10.51 6.72 16.48 19.26 16.99 31.71 0.52 12.46-3.91 24.75-10.6 35.27-10.19 16.04-25.8 28.57-43.66 35.05-15.48 5.61-32.98 7.05-46.03 17.09-18.29 14.07-25.29 43.09-47.8 48.16-13.5 3.04-26.97-4.31-40.69-6.04-37.06-4.65-68.56 31.38-105.91 31.91-17.13 0.24-33.35-7.08-48.9-14.26 9.59-34.57 32.17-62.09 67.82-71.91z"/>
				<path id="&lt;Path&gt;" class="s3" d="m845.58 932.76c20.17-15.11 42.98-25.48 67.58-30.9 12.52-2.76 25.44-4.73 36.97-10.64 11.47-5.88 19.61-16.11 29.44-24.17 18.53-15.21 41.09-13.62 62.83-20.47 23.58-7.43 35.34-30.32 54.63-43.98 11.19-7.93 24.45-10.67 37.22-15 15.41-5.22 29.64-12.98 42.72-22.6 2.91-2.15 5.68 2.75 2.8 4.88-10.37 7.63-21.44 14.09-33.31 19.08-12.4 5.21-26.01 7.51-38.09 13.41-21.09 10.3-32.2 33.03-52.46 44.51-20.82 11.8-47.2 6.87-67.23 20.34-9.99 6.73-17.62 16.29-27.25 23.48-9.22 6.9-19.91 10.59-31.02 13.2-13.74 3.23-27.5 5.63-40.74 10.71-14.83 5.68-28.59 13.51-41.29 23.03-2.89 2.17-5.66-2.73-2.8-4.88z"/>
			</g>
			<g id="&lt;Group&gt;">
				<path id="&lt;Path&gt;" class="s1" d="m843.86 747.89c14.7-15.98 35.48-27.67 43.17-47.98 5.48-14.44 3.15-30.55 5.11-45.87 3.19-24.8 18.46-47.76 40.1-60.27 5.64-3.26 11.83-5.97 16.06-10.92 2.73-3.19 4.46-7.11 6.13-10.96 5.18-11.97 10.37-24.18 18.7-34.22 8.33-10.03 20.44-17.78 33.48-17.65 12.47 0.12 24.18 7.59 31.22 17.88 7.04 10.29 9.79 23.06 9.7 35.53-0.14 19-6.74 37.89-18.45 52.86-10.15 12.97-24.23 23.46-29.98 38.89-8.05 21.63 1.4 49.95-15 66.17-9.84 9.73-25.15 10.64-37.71 16.45-33.89 15.7-41.5 62.95-72.89 83.19-14.4 9.29-32.03 11.67-49.03 13.83-10.19-34.4-5.63-69.7 19.39-96.93z"/>
				<path id="&lt;Path&gt;" class="s4" d="m822.66 839.68c9.09-23.5 22.94-44.39 40.93-62.02 9.15-8.97 19.06-17.49 25.7-28.61 6.62-11.08 8.09-24.06 12.16-36.11 7.65-22.71 27.62-33.32 42.43-50.66 16.05-18.79 13.89-44.44 23.01-66.25 5.29-12.65 15.08-22 23.62-32.44 10.29-12.59 18.25-26.72 24.23-41.81 1.34-3.36 6.29-0.68 4.97 2.65-4.75 11.97-10.71 23.31-18.14 33.84-7.75 10.99-18.07 20.15-25.19 31.56-12.43 19.91-9.79 45.08-20.89 65.55-11.4 21.03-36.38 30.84-46.22 52.88-4.92 11-6.31 23.15-10.66 34.35-4.17 10.74-11.28 19.53-19.32 27.64-9.94 10.02-20.33 19.35-28.87 30.67-9.56 12.68-17.08 26.61-22.8 41.41-1.31 3.38-6.26 0.69-4.96-2.65z"/>
			</g>
			<g id="&lt;Group&gt;">
				<g id="&lt;Group&gt;">
					<path id="&lt;Path&gt;" class="s6" d="m518.91 969.71c0 0 39.5-21.06 59.68-71.52 20.18-50.47 25.09-120.5 25.09-120.5l-73.5-22.95c0 0-41.99 90.52-41.99 94.21 0 3.69 30.72 120.76 30.72 120.76z"/>
					<g id="&lt;Group&gt;">
						<path id="&lt;Path&gt;" class="s7" d="m536.86 955.87c-15.98 24.55-59.46 24.27-73.22-40.6-14.08-66.41-13.53-245.47-13.53-245.47l8.62-1.48 0.49-28.8 2.84-14.19 0.27-1.36c0 0 23.52 10.2 24.94 13.64 12.87 31.21 64.33 171.38 70.87 210.88 7.37 44.25-5.29 82.77-21.28 107.38z"/>
						<g id="&lt;Group&gt;">
							<path id="&lt;Path&gt;" class="s8" d="m460.2 659.06c-6.64 2.74-12.44 10.16-22.1 7.04-9.64-3.16-23-4.12-32.04-1.58-9.02 2.56-21 0.88-34.26-10.38-6.94-5.88-19.78-17.48-31.2-28.68-4.26-4.22-8.09-4.1-11.59-7.88l-0.25-4.28c-1.55-1.55-1.94 0.81-3.31-0.88-2.07-2.55-5.53-9.24-7.03-12.26-0.76-1.52-1.44-3.34-2.02-5.36-1.26-4.3-1.84-11.66-2.12-17.4-0.27-5.56 1.2-11.09 4.27-15.74q0.31-0.47 0.37-0.5c2.92-0.74 5.96 2.7 8.44 7.12 2.9 5.16 2.86 15.22 3.08 17.76 0.02 0.12 11.66 12.68 14.92 17.84q0.08 0.11 0.16 0.22 0.13 0.18 0.1 0c-0.04-0.44-0.62-2.36-1.5-4.92v-0.02c-1.58-4.6-4.04-11.28-5.84-15.2-1.52-3.3-3-6.64-4.22-10.06-0.6-1.68-1.78-4.2-1.3-6.04 1.3-5 18.76-29.3 22.32-28.86 3.56 0.44 6.06 2.48 5 5.58-0.48 1.4-0.84 10.8-12.36 22.56-0.22 2.1 2.58 9.26 4.38 12.06l0.02 0.04c0.44 0.68 0.8 1.1 1.06 1.1 0.26 0 0.98-1.22 1.96-3.08v-0.02c2.84-5.46 7.7-16.28 8.26-16.62 12.46-7.84 23.5-13.12 27.44-13.78 4.82-0.8-3.8 15.32-12.58 19.24-4.7 2.1-9.46 12.32-9.5 16.58-0.06 4.26 19.06 19.78 19.06 19.78 0 0 3.34-13.36 5.18-15.5-2.86-19.8-3.46-17.68-2.76-29.46 0.72-11.8 8.38-13.18 12.84-11.62 4.48 1.58 4.64 26.5 5.64 31.28 0.96 4.78 19.38 20.1 24.6 24 5.24 3.9 14.28 22.26 14.28 22.26l14.72 0.56c0 0-1.44 7.24-0.24 16.84 1.08 8.54 1.26 16.98-1.88 18.26z"/>
							<path id="&lt;Path&gt;" class="s7" d="m458.52 668.86c-6.68 2.66-10.76 0.36-20.42-2.76-9.64-3.16-23-4.12-32.04-1.58-9.02 2.56-21 0.88-34.26-10.38-1.38-1.16-2.98-2.54-4.74-4.1-17.52-5.58-36.14-11.68-37.86-12.92-3.34-2.36-25.64-36.15-20.69-41.81 7.49-8.56 11.91 10.67 19.11 16.97l1.14 1.02 11 9.04 19.02 3.38 12.7 10.22c0 0 23.99-17.08 30.78-16.75 29.58 1.42 36.43 28.57 42 26.75 10.11-3.29 17.82-5.14 17.82-5.14 1.08 8.54 3.62 25.24-3.56 28.06z"/>
							<g id="&lt;Group&gt;">
								<path id="&lt;Path&gt;" class="s6" d="m387.82 602.44c0 0-1.62 5.93 5.43 19.9 0 0-1.15-11.17-5.43-19.9z"/>
								<path id="&lt;Path&gt;" class="s6" d="m358.78 625.72c2.14 1.54 7.12 5.66 7.12 5.66 0 0-6.06-1.86-8.68-2.8-1.94-0.72-11.76-2.34-16.62-3.12-1.66-0.26-2.74-0.44-2.74-0.44l-9.08-11.7c2.56 2.24 10.98 9.02 10.98 9.02 0 0 2.3 0.26 5.3 0.64 3 0.4 6.72 0.94 9.56 1.5 0 0 1.2-4.18 4.14-9.36l-13.14-11.02-0.26-0.22-1.24-4.7 14.76 15.74c1.66-2.9 3.86-6.1 6.7-9.08l-13.46-26.6c0.44 0.68 0.8 1.1 1.06 1.1 0.26 0 0.98-1.22 1.96-3.08-0.18 1.72 2.08 9.5 11.76 27.32 2.44-2.32 5.28-4.46 8.62-6.06 0 0-16.22 18.42-16.74 27.2z"/>
							</g>
						</g>
						<path id="&lt;Path&gt;" class="s8" d="m536.86 955.87c0 0 14.08-82.72 9.06-106.73-4.96-23.95-58.11-186.44-61.65-198.71-3.5-12.28-22.21-9.6-22.21-9.6l-4.29-11.48 4.56-5.38c0 0 23.52 10.2 24.94 13.64 12.87 31.21 64.33 171.38 70.87 210.88 7.37 44.25-5.29 82.77-21.28 107.38z"/>
					</g>
				</g>
				<g id="&lt;Group&gt;">
					<path id="&lt;Path&gt;" class="s6" d="m1012.36 969.71c0 0-39.5-21.06-59.68-71.52-20.19-50.47-25.1-120.5-25.1-120.5l73.5-22.95c0 0 41.99 90.52 41.99 94.21 0 3.69-30.71 120.76-30.71 120.76z"/>
					<g id="&lt;Group&gt;">
						<path id="&lt;Path&gt;" class="s7" d="m993.25 955.87c15.99 24.55 59.47 24.27 73.23-40.6 14.08-66.41 13.53-245.47 13.53-245.47l-8.62-1.48-0.49-28.8-2.84-14.19-0.27-1.36c0 0-23.52 10.2-24.94 13.64-12.88 31.21-64.33 171.38-70.87 210.88-7.37 44.25 5.29 82.77 21.27 107.38z"/>
						<g id="&lt;Group&gt;">
							<path id="&lt;Path&gt;" class="s8" d="m460.2 659.06c-6.64 2.74-12.44 10.16-22.1 7.04-9.64-3.16-23-4.12-32.04-1.58-9.02 2.56-21 0.88-34.26-10.38-6.94-5.88-19.78-17.48-31.2-28.68-4.26-4.22-8.09-4.1-11.59-7.88l-0.25-4.28c-1.55-1.55-1.94 0.81-3.31-0.88-2.07-2.55-5.53-9.24-7.03-12.26-0.76-1.52-1.44-3.34-2.02-5.36-1.26-4.3-1.84-11.66-2.12-17.4-0.27-5.56 1.2-11.09 4.27-15.74q0.31-0.47 0.37-0.5c2.92-0.74 5.96 2.7 8.44 7.12 2.9 5.16 2.86 15.22 3.08 17.76 0.02 0.12 11.66 12.68 14.92 17.84q0.08 0.11 0.16 0.22 0.13 0.18 0.1 0c-0.04-0.44-0.62-2.36-1.5-4.92v-0.02c-1.58-4.6-4.04-11.28-5.84-15.2-1.52-3.3-3-6.64-4.22-10.06-0.6-1.68-1.78-4.2-1.3-6.04 1.3-5 18.76-29.3 22.32-28.86 3.56 0.44 6.06 2.48 5 5.58-0.48 1.4-0.84 10.8-12.36 22.56-0.22 2.1 2.58 9.26 4.38 12.06l0.02 0.04c0.44 0.68 0.8 1.1 1.06 1.1 0.26 0 0.98-1.22 1.96-3.08v-0.02c2.84-5.46 7.7-16.28 8.26-16.62 12.46-7.84 23.5-13.12 27.44-13.78 4.82-0.8-3.8 15.32-12.58 19.24-4.7 2.1-9.46 12.32-9.5 16.58-0.06 4.26 19.06 19.78 19.06 19.78 0 0 3.34-13.36 5.18-15.5-2.86-19.8-3.46-17.68-2.76-29.46 0.72-11.8 8.38-13.18 12.84-11.62 4.48 1.58 4.64 26.5 5.64 31.28 0.96 4.78 19.38 20.1 24.6 24 5.24 3.9 14.28 22.26 14.28 22.26l14.72 0.56c0 0-1.44 7.24-0.24 16.84 1.08 8.54 1.26 16.98-1.88 18.26z"/>
							<path id="&lt;Path&gt;" class="s7" d="m458.52 668.86c-6.68 2.66-10.76 0.36-20.42-2.76-9.64-3.16-23-4.12-32.04-1.58-9.02 2.56-21 0.88-34.26-10.38-1.38-1.16-2.98-2.54-4.74-4.1-17.52-5.58-36.14-11.68-37.86-12.92-3.34-2.36-25.64-36.15-20.69-41.81 7.49-8.56 11.91 10.67 19.11 16.97l1.14 1.02 11 9.04 19.02 3.38 12.7 10.22c0 0 22.45-8.88 29.23-8.55 29.59 1.42 61.37 13.41 61.37 13.41 1.08 8.54 3.62 25.24-3.56 28.06z"/>
							<g id="&lt;Group&gt;">
								<path id="&lt;Path&gt;" class="s6" d="m387.82 602.44c0 0-0.46 11.9 6.59 25.87 0 0-2.31-17.14-6.59-25.87z"/>
								<path id="&lt;Path&gt;" class="s6" d="m358.78 625.72c2.14 1.54 7.12 5.66 7.12 5.66 0 0-6.06-1.86-8.68-2.8-1.94-0.72-11.76-2.34-16.62-3.12-1.66-0.26-2.74-0.44-2.74-0.44l-9.08-11.7c2.56 2.24 10.98 9.02 10.98 9.02 0 0 2.3 0.26 5.3 0.64 3 0.4 6.72 0.94 9.56 1.5 0 0 1.2-4.18 4.14-9.36l-13.14-11.02-0.26-0.22-1.24-4.7 14.76 15.74c1.66-2.9 3.86-6.1 6.7-9.08l-13.46-26.6c0.44 0.68 0.8 1.1 1.06 1.1 0.26 0 0.98-1.22 1.96-3.08-0.18 1.72 2.08 9.5 11.76 27.32 2.44-2.32 5.28-4.46 8.62-6.06 0 0-16.22 18.42-16.74 27.2z"/>
							</g>
						</g>
						<path id="&lt;Path&gt;" class="s8" d="m993.25 955.87c0 0-14.07-82.72-9.05-106.73 4.96-23.95 58.11-186.44 61.65-198.71 3.5-12.28 22.21-9.6 22.21-9.6l4.29-11.48-4.56-5.38c0 0-23.52 10.2-24.94 13.64-12.88 31.21-64.33 171.38-70.87 210.88-7.37 44.25 5.29 82.77 21.27 107.38z"/>
						<g id="&lt;Group&gt;">
							<path id="&lt;Path&gt;" class="s8" d="m1069.04 659.06c6.64 2.74 12.44 10.16 22.1 7.04 9.64-3.16 23-4.12 32.04-1.58 9.02 2.56 21 0.88 34.26-10.38 6.94-5.88 19.78-17.48 31.2-28.68 4.26-4.22 8.09-4.1 11.59-7.88l0.25-4.28c1.55-1.55 1.94 0.81 3.31-0.88 2.07-2.55 5.53-9.24 7.03-12.26 0.76-1.52 1.44-3.34 2.02-5.36 1.26-4.3 1.84-11.66 2.12-17.4 0.27-5.56-1.2-11.09-4.27-15.74q-0.31-0.47-0.37-0.5c-2.92-0.74-5.96 2.7-8.44 7.12-2.9 5.16-2.86 15.22-3.08 17.76-0.02 0.12-11.66 12.68-14.92 17.84q-0.08 0.11-0.16 0.22-0.13 0.18-0.1 0c0.04-0.44 0.62-2.36 1.5-4.92v-0.02c1.58-4.6 4.04-11.28 5.84-15.2 1.52-3.3 3-6.64 4.22-10.06 0.6-1.68 1.78-4.2 1.3-6.04-1.3-5-18.76-29.3-22.32-28.86-3.56 0.44-6.06 2.48-5 5.58 0.48 1.4 0.84 10.8 12.36 22.56 0.22 2.1-2.58 9.26-4.38 12.06l-0.02 0.04c-0.44 0.68-0.8 1.1-1.06 1.1-0.26 0-0.98-1.22-1.96-3.08v-0.02c-2.84-5.46-7.7-16.28-8.26-16.62-12.46-7.84-23.5-13.12-27.44-13.78-4.82-0.8 3.8 15.32 12.58 19.24 4.7 2.1 9.46 12.32 9.5 16.58 0.06 4.26-19.06 19.78-19.06 19.78 0 0-3.34-13.36-5.18-15.5 2.86-19.8 3.46-17.68 2.76-29.46-0.72-11.8-8.38-13.18-12.84-11.62-4.48 1.58-4.64 26.5-5.64 31.28-0.96 4.78-19.38 20.1-24.6 24-5.24 3.9-14.28 22.26-14.28 22.26l-14.72 0.56c0 0 1.44 7.24 0.24 16.84-1.08 8.54-1.26 16.98 1.88 18.26z"/>
							<path id="&lt;Path&gt;" class="s7" d="m1070.72 668.86c6.68 2.66 10.76 0.36 20.42-2.76 9.64-3.16 23-4.12 32.04-1.58 9.02 2.56 21 0.88 34.26-10.38 1.38-1.16 2.98-2.54 4.74-4.1 17.52-5.58 36.14-11.68 37.86-12.92 3.34-2.36 25.64-36.15 20.68-41.81-7.48-8.56-11.9 10.67-19.1 16.97l-1.14 1.02-11 9.04-19.02 3.38-12.7 10.22c0 0-29.75-8.17-36.53-7.84-29.58 1.42-54.07 12.7-54.07 12.7-1.08 8.54-3.62 25.24 3.56 28.06z"/>
							<g id="&lt;Group&gt;">
								<path id="&lt;Path&gt;" class="s6" d="m1141.42 602.44c0 0 1.04 10.93-12.9 26.51 0 0 8.62-17.78 12.9-26.51z"/>
								<path id="&lt;Path&gt;" class="s6" d="m1170.46 625.72c-2.14 1.54-7.12 5.66-7.12 5.66 0 0 6.06-1.86 8.68-2.8 1.94-0.72 11.76-2.34 16.62-3.12 1.66-0.26 2.74-0.44 2.74-0.44l9.08-11.7c-2.56 2.24-10.98 9.02-10.98 9.02 0 0-2.3 0.26-5.3 0.64-3 0.4-6.72 0.94-9.56 1.5 0 0-1.2-4.18-4.14-9.36l13.14-11.02 0.26-0.22 1.24-4.7-14.76 15.74c-1.66-2.9-3.86-6.1-6.7-9.08l13.46-26.6c-0.44 0.68-0.8 1.1-1.06 1.1-0.26 0-0.98-1.22-1.96-3.08 0.18 1.72-2.08 9.5-11.76 27.32-2.44-2.32-5.28-4.46-8.62-6.06 0 0 16.22 18.42 16.74 27.2z"/>
							</g>
						</g>
					</g>
				</g>
				<g id="&lt;Group&gt;">
					<g id="&lt;Group&gt;">
						<g id="&lt;Group&gt;">
							<g id="&lt;Group&gt;">
								<g id="&lt;Group&gt;">
									<g id="&lt;Group&gt;">
										<path id="&lt;Path&gt;" class="s9" d="m927.58 1008.08c-0.04-1.88-332.04 3.4-332.08 2.06-0.34-17.9-0.76-41.48-1.22-68.5-0.72-43.94-1.44-96.6-2.02-147.38l-0.04-2.6c0-0.72-0.02-1.4 0.02-2.08-1.1-99.54-1.28-190.38 1.3-191.68 2.18-1.08 7.18-2.28 13.98-3.52 18.92-3.52 51.78-7.54 75.82-10.66 1.04-0.14 2.02-0.24 3-0.36 0.98-0.1 1.92-0.2 2.86-0.36 0.94-0.16 1.88-0.26 2.78-0.36 6.9-0.88 12.58-1.7 16.38-2.34 0 0 102.46-1.16 102.5-1.16 1.72 0.24 3.64 0.58 5.76 0.9 1.08 0.16 2.2 0.36 3.38 0.52 2.24 0.32 4.72 0.72 7.24 1.12 3.86 0.62 7.96 1.26 12.24 1.96 29.24 4.74 65.96 11.14 73.2 14.56 2.72 1.3 6.4 97.98 9.42 199.86 0.08 1.26 0.1 2.46 0.16 3.72l1.2 40.44c0.86 31.54 1.66 62.34 2.36 89.66 0.38 14.8 0.72 28.56 0.96 40.9 0.26 9.68 0.48 18.48 0.64 26.18q0.09 4.86 0.16 9.12z"/>
									</g>
									<g id="&lt;Group&gt;">
										<path id="&lt;Path&gt;" class="s9" d="m607.49 594.34c0 0-17.27 1.93-29.96 7.76-12.69 5.82-28.2 95.2-32.41 98.47-4.21 3.28-29.96 55.34-29.96 55.34 0 0 71.12 43.55 103.02 38.73 31.9-4.82 17.4-164.86 17.4-164.86z"/>
									</g>
									<path id="&lt;Path&gt;" class="s1" d="m839.48 583.66c-3.23 6-18.43 56.3-78.53 52.82-55.99-3.25-68.54-38.07-77.6-52.72 10.77-1.38 19.79-2.58 24.99-3.46l102.49-1.12c6.98 1.03 17.26 2.64 28.65 4.48z"/>
								</g>
								<g id="&lt;Group&gt;">
									<g id="&lt;Group&gt;">
										<g id="&lt;Group&gt;">
											<g id="&lt;Group&gt;">
												<path id="&lt;Path&gt;" class="s10" d="m695.32 482.05c-13.52-0.83-23.7-10.61-29.27-18.9-1.25-1.87-2.27-3.66-3.04-5.26-4.18-8.71-6.43-39.37 3.2-46.88 6.75-5.25 12.07 1.8 14.65 6.51q0 0.01 0 0.01c1.1 2 1.71 3.57 1.71 3.57z"/>
												<path id="&lt;Path&gt;" class="s7" d="m696.75 482.58c-13.52-0.84-25.13-11.14-30.7-19.43q-0.73-1.27-1.28-2.43c-4.18-8.71-6.43-39.37 3.2-46.87 5.46-4.26 10-0.44 12.89 3.67q0 0.01 0 0.01c1.1 2 1.71 3.57 1.71 3.57z"/>
												<path id="&lt;Path&gt;" class="s8" d="m664 435.52c-0.4 2.47 0.01 5.01 0.73 7.41 3.1 10.21 11.5 17.76 19.53 24.77-2.53-4.91-3.6-10.52-3.32-16.03 0.09-1.92 0.34-3.83 0.28-5.75-0.23-7.73-14.83-25.03-17.22-10.4z"/>
												<g id="&lt;Group&gt;">
													<path id="&lt;Path&gt;" class="s11" d="m688.27 470.49q-0.01-0.01-0.45-0.3c-0.29-0.21-0.76-0.48-1.29-0.9-1.07-0.85-2.56-2.21-3.99-4.25-1.43-2.04-2.76-4.78-3.46-8.06-0.65-3.27-0.68-7.11 0.57-10.86q0.21-0.71 0.52-1.38l0.14-0.33c0.03-0.09 0.01-0.03 0.02-0.04v0.01-0.01c0 0 0.01 0.02-0.02-0.05l-0.14-0.29-0.28-0.58q-0.29-0.57-0.59-1.12-1.19-2.23-2.49-4.16-1.31-1.93-2.63-3.54c-0.89-1.07-1.73-2.08-2.57-2.81-0.83-0.74-1.73-1.21-2.56-1.31-0.83-0.09-1.61 0.18-2.12 0.53-0.52 0.35-0.8 0.8-0.91 1.13-0.12 0.32-0.11 0.52-0.12 0.52 0.01 0-0.05-0.19 0-0.55 0.04-0.36 0.24-0.91 0.75-1.43 0.51-0.51 1.32-1 2.41-1.07 1.1-0.06 2.3 0.36 3.38 1.08 1.09 0.72 2.08 1.63 3.12 2.63q1.57 1.52 3.12 3.44 1.54 1.93 2.92 4.24 0.34 0.58 0.67 1.18l0.32 0.61 0.43 0.85 0.29 0.61q-0.11 0.3-0.24 0.62l-0.36 0.88q-0.26 0.58-0.44 1.2c-1.09 3.25-1.24 6.62-0.9 9.62 0.4 3 1.29 5.65 2.35 7.73 1.05 2.09 2.23 3.63 3.1 4.64 0.44 0.51 0.83 0.86 1.07 1.12q0.38 0.39 0.38 0.4z"/>
												</g>
											</g>
											<g id="&lt;Group&gt;">
												<path id="&lt;Path&gt;" class="s10" d="m822.45 480.66c13.49-1.14 23.46-11.13 28.84-19.55 1.21-1.89 2.19-3.71 2.92-5.33 3.99-8.79 5.57-39.49-4.22-46.79-6.87-5.1-12.03 2.07-14.51 6.83q0 0.01 0 0.01c-1.06 2.03-1.62 3.61-1.62 3.61z"/>
												<path id="&lt;Path&gt;" class="s7" d="m821.03 481.22c13.49-1.14 24.88-11.69 30.26-20.11q0.7-1.28 1.23-2.45c3.98-8.8 5.57-39.5-4.23-46.79-5.56-4.14-10-0.22-12.81 3.95q0 0.01 0 0.01c-1.06 2.03-1.62 3.61-1.62 3.61z"/>
												<path id="&lt;Path&gt;" class="s8" d="m852.73 433.44c0.46 2.46 0.11 5.02-0.57 7.43-2.86 10.27-11.1 18.01-18.97 25.19 2.41-4.96 3.36-10.59 2.97-16.1-0.14-1.91-0.43-3.82-0.42-5.74 0.06-7.73 14.28-25.35 16.99-10.78z"/>
												<g id="&lt;Group&gt;">
													<path id="&lt;Path&gt;" class="s11" d="m829.24 468.94q0-0.01 0.45-0.31c0.28-0.22 0.74-0.49 1.26-0.93 1.06-0.87 2.52-2.26 3.9-4.34 1.38-2.06 2.65-4.83 3.28-8.13 0.57-3.29 0.53-7.13-0.81-10.85q-0.23-0.7-0.54-1.36l-0.15-0.33c-0.04-0.08-0.02-0.03-0.02-0.04v0.01h-0.01c0 0-0.01 0.01 0.02-0.06l0.14-0.29 0.27-0.58q0.27-0.58 0.56-1.14 1.14-2.25 2.4-4.21 1.27-1.96 2.55-3.61c0.86-1.08 1.69-2.1 2.5-2.86 0.82-0.76 1.71-1.24 2.54-1.37 0.83-0.1 1.61 0.15 2.13 0.49 0.53 0.34 0.82 0.78 0.93 1.11 0.13 0.32 0.12 0.52 0.13 0.52-0.01 0 0.05-0.19-0.01-0.55-0.05-0.36-0.26-0.91-0.78-1.42-0.52-0.49-1.34-0.96-2.44-1.02-1.09-0.03-2.28 0.42-3.35 1.16-1.07 0.74-2.04 1.68-3.06 2.7q-1.54 1.56-3.04 3.51-1.5 1.96-2.83 4.3-0.33 0.59-0.64 1.2l-0.31 0.61-0.41 0.86-0.28 0.61q0.12 0.31 0.26 0.62l0.38 0.88q0.27 0.57 0.47 1.18c1.16 3.23 1.37 6.59 1.1 9.6-0.33 3.01-1.17 5.68-2.17 7.78-1.01 2.12-2.15 3.68-3.01 4.71-0.42 0.52-0.8 0.88-1.04 1.15q-0.37 0.39-0.37 0.4z"/>
												</g>
											</g>
										</g>
										<g id="&lt;Group&gt;">
											<g id="&lt;Group&gt;">
												<path id="&lt;Path&gt;" class="s7" d="m810.85 579.18c-5.16 6.17-13.93 27.33-58.32 24.55-17.37-1.09-31.12-12.71-44.21-23.42 6.03-3.48 10.07-6.45 10.81-8.39 0.51-1.37 1.08-10.48 1.59-21.29 0.83-17.83 1.52-40.31 1.52-40.31l73.49-0.07c0 0-0.45 27.89 1.33 45.85 0.74 7.6 1.89 13.44 3.64 14.6 0.11 0.08 6.07 5.96 10.15 8.48z"/>
												<path id="&lt;Path&gt;" class="s8" d="m797.06 556.1c-24.5 9.75-53.35 7.33-76.34-5.47 0.83-17.83 1.52-40.31 1.52-40.31l73.49-0.07c0 0-0.45 27.89 1.33 45.85z"/>
												<g id="&lt;Group&gt;">
													<g id="&lt;Group&gt;">
														<g id="&lt;Group&gt;">
															<g id="&lt;Group&gt;">
																<g id="&lt;Group&gt;">
																	<g id="&lt;Group&gt;">
																		<g id="&lt;Group&gt;">
																			<g id="&lt;Group&gt;">
																				<g id="&lt;Group&gt;">
																					<g id="&lt;Group&gt;">
																						<g id="&lt;Group&gt;">
																							<g id="&lt;Group&gt;">
																								<path id="&lt;Path&gt;" class="s10" d="m832.98 433.26c-2.02 13.83-4.96 27.48-8.63 40.73-6.25 22.56-14.82 46.71-38.82 55.31-23.68 8.48-55.62 7.47-74.16-11.59-11.93-12.26-15.43-29.83-20.16-45.64-16.42-54.89-28.39-140.85 36.42-169.76 23.05-10.29 52.85-12.7 74.95 1.29 19.36 12.25 28.18 33.34 31.24 55.27 3.42 24.42 2.76 49.68-0.84 74.39z"/>
																							</g>
																						</g>
																					</g>
																				</g>
																			</g>
																		</g>
																	</g>
																</g>
															</g>
														</g>
													</g>
												</g>
												<g id="&lt;Group&gt;">
													<g id="&lt;Group&gt;">
														<g id="&lt;Group&gt;">
															<g id="&lt;Group&gt;">
																<g id="&lt;Group&gt;">
																	<g id="&lt;Group&gt;">
																		<g id="&lt;Group&gt;">
																			<g id="&lt;Group&gt;">
																				<g id="&lt;Group&gt;">
																					<g id="&lt;Group&gt;">
																						<g id="&lt;Group&gt;">
																							<g id="&lt;Group&gt;">
																								<path id="&lt;Path&gt;" class="s7" d="m831.16 427.32c-1.97 13.83-4.84 27.49-8.43 40.73-6.11 22.56-14.5 46.7-37.99 55.3-23.17 8.48-54.44 7.45-72.6-11.61-11.68-12.26-15.12-29.83-19.75-45.64-16.08-54.89-27.82-140.85 35.62-169.75 22.56-10.28 51.73-12.69 73.37 1.3 18.96 12.26 27.59 33.35 30.6 55.29 3.35 24.41 2.71 49.67-0.82 74.38z"/>
																							</g>
																						</g>
																					</g>
																				</g>
																			</g>
																		</g>
																	</g>
																</g>
															</g>
														</g>
													</g>
												</g>
											</g>
										</g>
										<g id="&lt;Group&gt;">
											<g id="&lt;Group&gt;">
												<g id="&lt;Group&gt;">
													<path id="&lt;Path&gt;" class="s12" d="m691.32 392.03c0 0 34.11-21.04 45.44-12.83 6.61 4.8 1.03 7.74 1.03 7.74z"/>
												</g>
												<g id="&lt;Group&gt;">
													<path id="&lt;Path&gt;" class="s12" d="m817.56 394.47c0 0-29.81-26.78-42.43-20.72-7.36 3.54-2.39 7.43-2.39 7.43z"/>
												</g>
											</g>
											<g id="&lt;Group&gt;">
												<path id="&lt;Path&gt;" class="s8" d="m745.73 450.6q2.07-4.06 4.15-8.11c7.1-0.35 14.4-3.24 19.82-7.85 0.58 2.29 1.11 4.61 1.05 6.97-0.06 2.35-0.77 4.77-2.4 6.47-1.51 1.58-3.65 2.4-5.76 2.97-5.9 1.58-10.98 1.18-16.86-0.45z"/>
												<g id="&lt;Group&gt;">
													<path id="&lt;Path&gt;" class="s13" d="m769.55 447.78c0 0-0.84 0.72-2.56 1.8-1.73 1.03-4.42 2.39-8.04 3.19-1.81 0.41-3.85 0.67-6.06 0.67-2.35-0.04-3.9-0.05-8.71-1.42l-0.79-0.23c-0.11-0.04-0.32-0.05-0.36-0.13l0.19-0.31 0.74-1.3q0.78-1.33 1.57-2.69c0.31-0.53 0.47-0.82 0.58-1.06l0.41-0.81 0.83-1.63c1.03-2.26 2.05-4.6 2.88-7.09 3.47-9.92 4.23-19.63 3.81-26.62-0.16-3.51-0.61-6.35-0.93-8.31-0.38-1.94-0.59-3.05-0.59-3.05 0 0 0.45 1.04 1.24 2.87 0.71 1.87 1.7 4.64 2.41 8.22 1.53 7.06 1.87 17.59-1.88 28.3-0.89 2.67-2.05 5.17-3.26 7.54q-0.93 1.57-1.82 3.09c-0.11 0.18-0.62 0.65-0.5 0.73-0.41 0.06 2.52 0.79 4.35 0.97 1.98 0.24 3.86 0.26 5.57 0.14 3.44-0.23 6.2-1.02 8.07-1.68 1.85-0.69 2.85-1.19 2.85-1.19z"/>
												</g>
											</g>
											<g id="&lt;Group&gt;">
												<path id="&lt;Path&gt;" class="s14" d="m717.01 423.59c-7.6-0.72-14.45-5.28-19.35-11.13 11.06 3.57 23.46 4.21 34.79 1.64l3.61-0.45c-3.24 6.91-11.46 10.66-19.05 9.94z"/>
											</g>
											<g id="&lt;Group&gt;">
												<path id="&lt;Path&gt;" class="s14" d="m793.98 422.01c7.6-0.72 14.45-5.28 19.34-11.13-11.05 3.57-23.45 4.21-34.78 1.64l-3.62-0.44c3.25 6.9 11.46 10.65 19.06 9.93z"/>
											</g>
										</g>
										<g id="&lt;Group&gt;">
											<g id="&lt;Group&gt;">
												<g id="&lt;Group&gt;">
													<path id="&lt;Path&gt;" class="s8" d="m716.32 449.87c-1.25 3.45-10.69 3.2-21.09-0.56-10.39-3.77-17.81-9.61-16.56-13.06 1.25-3.45 10.69-3.2 21.08 0.56 10.4 3.76 17.81 9.61 16.57 13.06z"/>
													<path id="&lt;Path&gt;" class="s8" d="m841.35 433.78c1.45 3.37-5.61 9.64-15.77 14-10.16 4.37-19.57 5.17-21.01 1.8-1.45-3.37 5.61-9.64 15.77-14.01 10.16-4.36 19.57-5.16 21.01-1.79z"/>
													<g id="&lt;Group&gt;">
														<path id="&lt;Path&gt;" class="s13" d="m790.61 465.91c-4.21 9.1-13.17 16.71-23.4 19.86-10.23 3.16-21.48 1.79-29.38-3.58 17.27 3.69 39.22-3.72 52.78-16.28z"/>
														<path id="&lt;Path&gt;" class="s8" d="m778 488.82c-1.32 4.41-4.84 8.1-9.18 9.64-4.35 1.54-9.4 0.89-13.21-1.7 7.85 1.77 17.13-1.85 22.39-7.94z"/>
													</g>
												</g>
											</g>
										</g>
									</g>
								</g>
								<g id="&lt;Group&gt;">
									<g id="&lt;Group&gt;">
										<path id="&lt;Path&gt;" class="s14" d="m655.3 290.23c-0.19 5.79 0.27 11.59 1.37 17.3 2.11 10.92 6.75 21.76 15.1 29.1 3.05 2.65 6.48 4.7 10.15 6.25 0.14 4.51 0.53 7.31 0.53 7.31 27.74 8.57 139.91-16.33 139.91-16.33l9.87 90.35 17.76-15.22c0 0 9.68-51.54 10.21-59.53 0.1-1.89 0.17-3.72 0.13-5.56-0.22-37.38-27.33-65.16-63.76-72.88-13.77-2.93-28.02-3.05-41.97-1.43-12.37 1.41-22.31 7.02-31.96-3.59-3.51-3.89-6.13-8.79-7.14-13.95-0.4-1.98-1.26-13.89 1.92-14.46-19.02 3.32-34.08 21.95-33.38 41.27-9.9-3.59-17.91-12.02-20.95-22.12-4.92 10.44-7.55 21.96-7.79 33.49z"/>
										<path id="&lt;Path&gt;" class="s12" d="m655.3 290.23c14.25 21.69 38.94 36.53 64.95 37.77 27.81 1.3 54.77-11.56 82.57-10.49 21.65 0.83 42.57 10.76 57.51 26.39-0.1-19.22-7.36-35.93-19.29-48.63-11.29-12.05-26.76-20.51-44.47-24.25-13.77-2.93-28.02-3.05-41.97-1.43-12.37 1.41-22.31 7.02-31.96-3.59-3.51-3.89-6.13-8.79-7.14-13.95-0.4-1.98-1.26-13.89 1.92-14.46-19.02 3.32-34.08 21.95-33.38 41.27-9.9-3.59-17.91-12.02-20.95-22.12-2.76 5.86-4.8 12.1-6.09 18.48-1.01 4.95-1.61 9.96-1.7 15.01z"/>
										<path id="&lt;Path&gt;" class="s15" d="m657 275.22c5.12 8.09 12.69 14.77 21.11 19.54 13.27 7.47 28.41 10.68 43.42 12.98-6.54-3.69-11.17-10.68-11.93-18.18 11.26 5.89 24.69 5.92 37.25 3.92 12.57-2.01 24.79-5.9 37.4-7.49 19.29-2.45 39.16 1.03 56.79 9.28-11.29-12.05-26.76-20.51-44.47-24.25-13.77-2.93-28.02-3.05-41.97-1.43-12.37 1.41-22.31 7.02-31.96-3.59-3.51-3.89-6.13-8.79-7.14-13.95-0.4-1.98-1.26-13.89 1.92-14.46-19.02 3.32-34.08 21.95-33.38 41.26-9.9-3.58-17.91-12.01-20.95-22.11-2.76 5.86-4.8 12.1-6.09 18.48z"/>
									</g>
									<path id="&lt;Path&gt;" class="s14" d="m686.51 342.37l-3.02 83.14-15.61-15.55-3.03-86.65z"/>
								</g>
							</g>
							<g id="&lt;Group&gt;">
								<path id="&lt;Path&gt;" class="s9" d="m912.67 598.22c0 0 17.33 1.33 30.21 6.71 12.89 5.38 28.59 89.46 32.91 92.58 4.32 3.12 34.75 58.98 34.75 58.98 0 0-69.57 45.98-101.62 42.27-32.05-3.71-23.1-164.16-23.1-164.16z"/>
							</g>
							<path id="&lt;Path&gt;" class="s16" d="m603.68 634.53l8.51 60.12-7.25 99.75 17.91-99.94z"/>
							<path id="&lt;Path&gt;" class="s16" d="m895.48 634.44l-10.55 69.59 33.39 91.94-21.67-93.75z"/>
						</g>
					</g>
				</g>
				<path id="&lt;Path&gt;" class="s17" d="m927.58 1008.08c-0.04-1.88-332.04 3.4-332.08 2.06-0.34-17.9-0.76-41.48-1.22-68.5-0.72-43.94-1.44-96.6-2.02-147.38l-0.04-2.6 12.72 2.74 13.14 192.62 309.34 11.94q0.09 4.86 0.16 9.12z"/>
				<g id="&lt;Group&gt;">
					<path id="&lt;Path&gt;" class="s1" d="m873.65 738.6c0 20.23-15.13 36.63-33.79 36.63-18.66 0-33.79-16.4-33.79-36.63 0-20.23 15.13-36.63 33.79-36.63 18.66 0 33.79 16.4 33.79 36.63z"/>
					<path id="&lt;Path&gt;" class="s18" d="m856.06 744.32c-6.04 3.01-9.63 6.89-12.29 13.53-1.79 4.46-8.06 4.46-9.85 0-2.66-6.64-6.25-10.52-12.28-13.53-3.81-1.91-3.81-7.5 0-9.4 6.03-3.02 9.62-6.9 12.28-13.54 1.79-4.46 8.06-4.46 9.85 0 2.66 6.64 6.25 10.52 12.29 13.54 3.81 1.9 3.81 7.49 0 9.4z"/>
				</g>
			</g>
			<g id="&lt;Group&gt;">
				<path id="&lt;Path&gt;" class="s4" d="m873.24 994.84c21.04-5.35 44.83-3.79 62.37-16.59 12.48-9.11 19.33-23.87 29.35-35.63 16.21-19.03 41.55-29.92 66.51-28.57 6.5 0.35 13.17 1.46 19.42-0.37 4.03-1.18 7.61-3.52 11.12-5.83 10.88-7.19 21.9-14.58 34.36-18.44 12.46-3.85 26.83-3.72 37.68 3.51 10.38 6.91 16.1 19.57 16.38 32.03 0.27 12.47-4.4 24.67-11.29 35.06-10.5 15.83-26.35 28.06-44.33 34.19-15.59 5.31-33.12 6.41-46.36 16.19-18.56 13.72-26.12 42.6-48.73 47.23-13.55 2.77-26.87-4.84-40.56-6.83-36.96-5.37-69.16 30.04-106.51 29.84-17.13-0.09-33.2-7.73-48.62-15.2 10.27-34.38 33.37-61.46 69.21-70.59z"/>
				<path id="&lt;Path&gt;" class="s2" d="m805.32 1060.13c20.46-14.72 43.47-24.64 68.17-29.58 12.57-2.51 25.52-4.23 37.16-9.92 11.59-5.66 19.93-15.73 29.91-23.6 18.83-14.84 41.35-12.81 63.22-19.24 23.71-6.97 35.92-29.63 55.47-42.91 11.34-7.71 24.66-10.19 37.51-14.27 15.5-4.92 29.88-12.4 43.14-21.77 2.96-2.09 5.64 2.86 2.71 4.93-10.51 7.43-21.71 13.67-33.68 18.43-12.49 4.98-26.14 7.01-38.34 12.67-21.29 9.89-32.83 32.4-53.31 43.49-21.04 11.38-47.33 5.95-67.61 19.02-10.12 6.53-17.94 15.95-27.7 22.95-9.36 6.71-20.11 10.19-31.28 12.59-13.79 2.96-27.6 5.1-40.93 9.92-14.94 5.39-28.85 12.95-41.73 22.22-2.94 2.11-5.61-2.84-2.71-4.93z"/>
			</g>
			<g id="&lt;Group&gt;">
				<path id="&lt;Path&gt;" class="s4" d="m643.74 1122.2c12.38-17.84 31.38-32.24 36.24-53.41 3.46-15.06-1.04-30.69-1.18-46.14-0.22-25 11.79-49.83 31.53-65.17 5.14-3.99 10.9-7.52 14.42-13 2.28-3.53 3.45-7.65 4.58-11.69 3.51-12.57 6.99-25.36 13.87-36.44 6.89-11.08 17.83-20.4 30.77-22.05 12.37-1.57 24.99 4.24 33.36 13.47 8.37 9.24 12.84 21.51 14.45 33.87 2.44 18.85-1.52 38.47-11.09 54.88-8.29 14.23-20.82 26.54-24.41 42.62-5.03 22.52 8.19 49.29-5.86 67.6-8.42 10.97-23.47 13.95-35.12 21.42-31.43 20.16-32.55 68.01-60.9 92.33-13 11.16-30.14 15.92-46.69 20.38-14.77-32.7-15.06-68.3 6.03-98.67z"/>
				<path id="&lt;Path&gt;" class="s1" d="m635.22 1216.02c5.81-24.52 16.69-47.1 32.11-67.02 7.85-10.13 16.51-19.92 21.57-31.84 5.05-11.87 4.75-24.94 7.13-37.42 4.5-23.55 22.84-36.77 35.15-55.96 13.34-20.81 7.72-45.93 13.78-68.77 3.52-13.26 11.95-23.85 18.98-35.36 8.49-13.87 14.45-28.95 18.33-44.71 0.86-3.51 6.13-1.53 5.28 1.95-3.08 12.5-7.44 24.55-13.36 35.99-6.19 11.95-15.17 22.43-20.67 34.7-9.6 21.41-3.56 45.99-11.77 67.78-8.44 22.39-31.85 35.51-38.61 58.67-3.37 11.57-3.1 23.8-5.89 35.49-2.67 11.2-8.51 20.88-15.37 30.01-8.49 11.27-17.51 21.93-24.43 34.31-7.75 13.87-13.3 28.69-16.96 44.13-0.83 3.52-6.1 1.53-5.27-1.95z"/>
			</g>
		</g>
		<g id="&lt;Group&gt;">
			<g id="&lt;Group&gt;">
				<g id="&lt;Group&gt;">
					<g id="&lt;Group&gt;">
						<g id="&lt;Group&gt;">
							<path id="&lt;Path&gt;" class="s19" d="m376.32 406.6c-0.68 2.05-2.65 3.56-5.05 3.3-11.13-1.72-27.05 5.54-32.27 19.84-8.36 35.85 31.65 55.34 52.29 32.3 1.65-1.87 4.28-1.93 6.21-0.67 26.44 60.98 3.77 55.47 68.1 31.64 3.67-1.42 4.1-6.36 0.91-8.8-10.92-7.39-17.98-28.68-7.9-42.82 8.52-10.65 18.62-14.53 32.08-12.35 16.95 3.79 26 24.29 22.83 37.12-0.77 3.95 2.87 7.33 6.55 5.92 56.21-22.42 52.62-10.03 36.5-49.89-2.17-5.39-4.57-11.71-7.09-19.2 0.6-2.22 2.57-3.94 5.04-3.66 30.75 3.29 47.44-38.01 17.21-59-13.42-7.14-30.13-1.88-37.25 6.87-1.6 1.81-4.06 1.99-5.96 0.93-26.12-59.44-2.93-55.94-66.26-32.44-3.17 0.62-6.32-1.99-5.97-5.4 0.49-4.79-0.1-9.81-1.95-14.65-6.28-16.38-24.41-24.58-40.26-18.07-21.7 7.08-26.63 37.85-9.43 52.56 2.55 2.3 1.94 6.35-0.83 8.02l-23.65 9.03-17.41 6.65-1.38 0.83c-2.41 1.08-3.59 3.91-2.6 6.47z"/>
							<g id="&lt;Group&gt;">
								<path id="&lt;Path&gt;" class="s20" d="m539.28 346.37c1.87 1.1 4.35 0.93 5.98-0.84 7.24-8.64 24-13.66 37.35-6.35 29.91 21.45 12.66 62.48-18.05 58.75-2.47-0.32-4.49 1.37-5.11 3.59 20.3 63.3 33.72 44.2-30.37 68.68-3.69 1.35-7.27-2.08-6.48-6.02 3.35-12.75-5.38-33.43-22.28-37.41-13.43-2.4-23.57 1.34-32.26 11.86-10.26 14.01-3.55 35.39 7.28 42.96 3.19 2.46 2.68 7.4-1.02 8.77-57.05 20.18-46.18 27.12-60.33-13.48-1.91-5.48-4.28-11.81-7.32-19.11-1.91-1.28-4.53-1.27-6.2 0.57-20.96 22.75-60.73 2.68-51.83-33.04 5.39-14.21 21.42-21.26 32.55-19.38 2.39 0.31 4.36-1.18 5.09-3.22-19.53-61.93-34.66-44 28.46-68.07 2.78-1.62 3.44-5.66 0.93-7.99-3.53-3.29-6.39-7.45-8.19-12.31-6.07-16.46 2.16-34.57 18.37-40.12 20.99-8.98 44.97 10.92 41.73 33.32-0.4 3.41 2.73 6.05 5.91 5.48l23.75-8.79 17.47-6.47 1.59-0.29c2.52-0.78 5.27 0.58 6.21 3.15z"/>
								<path id="&lt;Path&gt;" class="s19" d="m539.28 346.37c1.87 1.1 4.35 0.93 5.98-0.84 7.24-8.64 24-13.66 37.35-6.35 29.91 21.45 12.66 62.48-18.05 58.75-2.47-0.32-4.49 1.37-5.11 3.59 20.3 63.3 33.72 44.2-30.37 68.68-3.69 1.35-7.27-2.08-6.48-6.02 3.35-12.75-5.38-33.43-22.28-37.41-13.43-2.4-23.57 1.34-32.26 11.86-10.26 14.01-3.55 35.39 7.28 42.96 3.19 2.46 2.68 7.4-1.02 8.77-57.05 20.18-46.18 27.12-60.33-13.48 59.24-45.46 77.67-118.68 83.25-172.66l17.47-6.47 1.59-0.29c2.52-0.78 5.27 0.58 6.21 3.15z"/>
							</g>
						</g>
					</g>
					<g id="&lt;Group&gt;">
						<g id="&lt;Group&gt;">
							<path id="&lt;Path&gt;" class="s19" d="m1330 849.44c0.14 1.99 1.57 3.78 3.77 4.09 10.33 0.96 22.91 11.04 24.36 24.99-0.6 33.9-40.74 42.3-53.98 17.07-1.05-2.04-3.39-2.69-5.39-1.99-37.36 48.51-15.86 48.69-67.96 12.92-2.95-2.09-2.23-6.6 1.17-8.06 11.42-4.14 22.52-21.57 16.7-36.47-5.22-11.43-13.36-17.17-25.88-18.25-15.98-0.44-28.68 15.84-28.75 28.01-0.2 3.71-4.21 5.9-7.18 3.82-45.16-32.68-44.73-20.81-21.36-52.78 3.15-4.33 6.71-9.43 10.64-15.56-0.03-2.12-1.4-4.09-3.67-4.4-28.21-3.98-33.82-44.63-2.09-56.57 13.59-3.36 27.33 5.1 31.73 14.52 1.02 1.98 3.18 2.69 5.11 2.17 36.72-47.21 15.21-49.3 66.49-14.06 2.69 1.27 6.09-0.35 6.54-3.48 0.65-4.39 2.31-8.73 5.05-12.64 9.3-13.22 27.33-16.47 40.02-7.08 17.79 11.21 15.27 39.8-3.41 49.07-2.79 1.48-3.16 5.24-1.06 7.35l19.09 13.39 14.05 9.86 1.05 1.06c1.91 1.5 2.32 4.3 0.87 6.36z"/>
							<path id="&lt;Path&gt;" class="s1" d="m1321.58 844.66c0.14 1.99 1.57 3.78 3.77 4.08 10.33 0.97 22.91 11.04 24.36 24.99-0.6 33.9-40.74 42.3-53.98 17.08-1.05-2.04-3.39-2.69-5.39-2-37.36 48.52-15.86 48.7-67.96 12.93-2.95-2.09-2.23-6.6 1.17-8.06 11.42-4.14 22.52-21.58 16.7-36.47-5.22-11.44-13.36-17.17-25.88-18.25-15.98-0.44-28.68 15.83-28.75 28.01-0.2 3.7-4.21 5.9-7.18 3.81-45.16-32.67-44.74-20.81-21.36-52.78 3.15-4.32 6.71-9.43 10.64-15.55-0.03-2.12-1.4-4.1-3.67-4.4-28.21-3.99-33.82-44.63-2.09-56.58 13.59-3.35 27.33 5.11 31.73 14.53 1.02 1.97 3.18 2.69 5.11 2.17 36.71-47.22 15.21-49.31 66.49-14.06 2.68 1.26 6.09-0.35 6.54-3.48 0.65-4.39 2.3-8.74 5.05-12.64 9.3-13.22 27.33-16.47 40.02-7.08 17.79 11.2 15.27 39.8-3.41 49.07-2.8 1.48-3.16 5.23-1.06 7.35l19.09 13.39 14.05 9.86 1.05 1.05c1.91 1.5 2.32 4.3 0.86 6.36z"/>
							<path id="&lt;Path&gt;" class="s19" d="m1321.58 844.66c0.14 1.99 1.57 3.78 3.77 4.08 10.33 0.97 22.91 11.04 24.36 24.99-0.6 33.9-40.74 42.3-53.98 17.08-1.05-2.04-3.39-2.69-5.39-2-37.36 48.52-15.86 48.7-67.96 12.93-2.95-2.09-2.23-6.6 1.17-8.06 11.42-4.14 22.52-21.58 16.7-36.47-5.22-11.44-13.36-17.17-25.88-18.25-15.98-0.44-28.68 15.83-28.75 28.01-0.2 3.7-4.21 5.9-7.18 3.81-45.16-32.67-44.74-20.81-21.36-52.78 65.46 21.1 130.61-3.25 174.44-27.28l14.05 9.86 1.05 1.05c1.91 1.5 2.32 4.3 0.86 6.36z"/>
						</g>
					</g>
				</g>
				<g id="&lt;Group&gt;">
					<path id="&lt;Path&gt;" class="s21" d="m243.63 777.69c0 0-26.6 21.49-14.13 49.49l-24.32 8.88c0 0-16.41-37.85-0.02-53.34 16.39-15.49 38.47-5.03 38.47-5.03z"/>
					<g id="&lt;Group&gt;">
						<path id="&lt;Path&gt;" class="s22" d="m351.22 702.51c-0.99 14.32-12.89 28.78-27.16 30.3-6.03 20.03-24.99 35.94-45.89 36.82-9.4 12.16-22.81 21.15-37.62 25.23-4.34 1.19-8.87 1.98-13.33 1.41-4.47-0.56-8.73-2.71-11.4-6.33-11 7.01-23.48 12.79-36.52 12.28-11.51-0.46-23.64-6.59-28.14-16.82q-0.9-2.03-1.38-4.27c-12.97-3.66-23.32-15.32-25.41-28.64-2.1-13.31 3.76-26.16 14.98-33.63-9.25-13.87-7.13-34.21 4.8-45.86 11.92-11.66 32.3-13.32 45.96-3.75-2.13-25.55 10.21-50.63 39.5-46.46 8.14 1.16 16.74 4.24 24.09 8.59q3.02 1.79 5.71 3.84c1.27 0.97 14.48 12.59 14.45 12.62 8.85-7.58 22.26-8.86 32.87-4.04 10.62 4.83 18.55 15.3 21.18 26.65 13.92 3.48 24.3 17.75 23.31 32.06z"/>
					</g>
					<g id="&lt;Group&gt;">
						<g id="&lt;Group&gt;">
							<path id="&lt;Path&gt;" class="s21" d="m258.22 692.22c-0.47 0.17-1.01 0.1-1.41-0.25-0.6-0.5-0.67-1.4-0.16-2 9.88-11.67 15.27-27.13 14.77-42.42-0.03-0.79 0.59-1.44 1.37-1.47 0.79-0.02 1.44 0.59 1.47 1.38 0.52 15.98-5.11 32.14-15.45 44.35q-0.25 0.29-0.59 0.41z"/>
						</g>
						<g id="&lt;Group&gt;">
							<path id="&lt;Path&gt;" class="s21" d="m267.78 692.84q-0.13 0.04-0.27 0.07c-4.74 0.71-9.65-0.2-13.82-2.57-0.68-0.39-0.92-1.26-0.53-1.94 0.39-0.68 1.25-0.92 1.93-0.53 3.62 2.05 7.88 2.85 11.99 2.23 0.78-0.12 1.5 0.42 1.62 1.19 0.1 0.68-0.3 1.32-0.92 1.55z"/>
						</g>
						<g id="&lt;Group&gt;">
							<path id="&lt;Path&gt;" class="s21" d="m230.6 669.92c-13.31 4.86-28.17 4.94-41.56 0.1-0.74-0.27-1.12-1.08-0.85-1.82 0.26-0.74 1.08-1.12 1.82-0.85 14.43 5.22 30.65 4.44 44.51-2.15 0.71-0.34 1.56-0.04 1.89 0.67 0.34 0.71 0.04 1.56-0.67 1.89q-2.52 1.2-5.14 2.16z"/>
						</g>
						<g id="&lt;Group&gt;">
							<path id="&lt;Path&gt;" class="s21" d="m223.23 687.29c-0.42 0.15-0.89 0.11-1.29-0.15-0.65-0.44-0.82-1.32-0.38-1.97 3.01-4.46 4.74-9.88 4.89-15.25 0.02-0.79 0.68-1.4 1.46-1.38 0.78 0.02 1.4 0.67 1.38 1.46-0.16 5.9-2.07 11.86-5.38 16.75q-0.27 0.39-0.68 0.54z"/>
						</g>
						<g id="&lt;Group&gt;">
							<path id="&lt;Path&gt;" class="s21" d="m275.91 773.63c-0.41 0.15-0.89 0.11-1.28-0.15-0.65-0.44-0.83-1.32-0.39-1.97 3.88-5.83 5.3-13.39 3.8-20.22-1.5-6.84-5.96-13.11-11.92-16.78-0.67-0.41-0.88-1.28-0.47-1.95 0.42-0.67 1.29-0.88 1.96-0.46 6.6 4.06 11.54 11 13.2 18.58 1.66 7.57 0.09 15.95-4.21 22.4q-0.27 0.4-0.69 0.55z"/>
						</g>
						<g id="&lt;Group&gt;">
							<path id="&lt;Path&gt;" class="s21" d="m216.56 790.61c-0.59 0.21-1.27 0.01-1.65-0.53-5.7-8.17-7.64-18.82-5.21-28.48 2.44-9.66 9.2-18.12 18.09-22.61 0.7-0.36 1.56-0.08 1.91 0.62 0.35 0.7 0.07 1.56-0.63 1.91-8.16 4.13-14.38 11.9-16.61 20.77-2.24 8.88-0.45 18.66 4.78 26.17 0.45 0.64 0.29 1.53-0.35 1.98q-0.16 0.1-0.33 0.17z"/>
						</g>
						<g id="&lt;Group&gt;">
							<path id="&lt;Path&gt;" class="s21" d="m170.29 726.98c-2.48 0.91-5.06 1.51-7.67 1.77-8.61 0.86-17.66-2-24.2-7.65-0.6-0.52-0.66-1.41-0.15-2.01 0.51-0.59 1.41-0.65 2-0.14 5.97 5.15 14.22 7.76 22.07 6.98 7.84-0.78 15.41-4.97 20.25-11.2 0.48-0.62 1.37-0.73 1.99-0.25 0.62 0.48 0.73 1.37 0.25 1.99-3.69 4.76-8.84 8.43-14.54 10.51z"/>
						</g>
						<g id="&lt;Group&gt;">
							<path id="&lt;Path&gt;" class="s21" d="m150.07 784.66c-0.34 0.13-0.72 0.12-1.07-0.04-0.72-0.32-1.04-1.16-0.71-1.87 9.87-21.92 29.56-38.93 52.68-45.5 0.76-0.21 1.54 0.22 1.76 0.98 0.21 0.75-0.22 1.54-0.98 1.75-22.32 6.35-41.34 22.77-50.87 43.93-0.17 0.36-0.47 0.63-0.81 0.75z"/>
						</g>
						<g id="&lt;Group&gt;">
							<path id="&lt;Path&gt;" class="s21" d="m190.24 766.63q-0.33 0.12-0.7 0.07c-7.67-1.15-14.25-7.23-15.99-14.79-0.18-0.76 0.3-1.52 1.06-1.7 0.77-0.18 1.53 0.3 1.71 1.06 1.46 6.35 7.2 11.66 13.64 12.62 0.78 0.11 1.31 0.84 1.19 1.61-0.07 0.54-0.44 0.95-0.91 1.13z"/>
						</g>
						<g id="&lt;Group&gt;">
							<path id="&lt;Path&gt;" class="s21" d="m279.13 747.83q-0.29 0.1-0.58 0.2c-0.74 0.24-1.54-0.16-1.79-0.91-0.24-0.74 0.16-1.54 0.91-1.79 7.03-2.31 10.38-8.67 11.96-13.6 0.23-0.75 1.03-1.16 1.78-0.92 0.75 0.24 1.16 1.04 0.92 1.78-2.43 7.63-7.11 13.01-13.2 15.24z"/>
						</g>
						<g id="&lt;Group&gt;">
							<path id="&lt;Path&gt;" class="s21" d="m291.78 707.8q-0.36 0.14-0.76 0.06c-0.77-0.15-1.27-0.9-1.12-1.66 1.75-8.87 6.46-17.44 13.27-24.12 6.8-6.68 15.45-11.23 24.35-12.81 0.78-0.14 1.51 0.37 1.65 1.14 0.14 0.78-0.38 1.51-1.15 1.65-17.38 3.1-31.91 17.36-35.34 34.69-0.09 0.5-0.45 0.89-0.9 1.05z"/>
						</g>
						<g id="&lt;Group&gt;">
							<path id="&lt;Path&gt;" class="s21" d="m322.57 708.05c-0.65 0.23-1.39-0.03-1.73-0.65-4.74-8.52-13.3-14.67-22.89-16.45-0.77-0.14-1.28-0.88-1.14-1.65 0.15-0.77 0.89-1.28 1.66-1.14 10.41 1.93 19.7 8.61 24.85 17.86 0.38 0.69 0.14 1.55-0.55 1.93q-0.1 0.06-0.2 0.1z"/>
						</g>
						<g id="&lt;Group&gt;">
							<path id="&lt;Path&gt;" class="s21" d="m259.75 719.56c-12.2 4.46-25.82 5.17-38.38 1.86-0.76-0.2-1.21-0.97-1.01-1.73 0.2-0.76 0.98-1.21 1.73-1.01 14.33 3.77 30.12 2.07 43.32-4.67 0.69-0.36 1.55-0.08 1.91 0.61 0.35 0.7 0.08 1.56-0.62 1.91q-3.38 1.73-6.95 3.03z"/>
						</g>
						<g id="&lt;Group&gt;">
							<path id="&lt;Path&gt;" class="s21" d="m235.42 723.35c-0.42 0.16-0.9 0.11-1.29-0.15-0.65-0.45-0.82-1.33-0.37-1.98 3.15-4.63 4.41-9.19 4.08-14.78-0.05-0.78 0.55-1.45 1.34-1.5 0.78-0.04 1.45 0.55 1.49 1.34 0.36 6.17-1.09 11.43-4.57 16.54q-0.27 0.39-0.68 0.53z"/>
						</g>
					</g>
					<g id="&lt;Group&gt;" style="opacity: .46;mix-blend-mode: overlay">
						<path id="&lt;Path&gt;" class="s1" d="m183.19 676.93c-1.4-2.71-4.54-4.21-7.59-4.35-3.05-0.14-6.04 0.87-8.83 2.1-6.48 2.85-12.54 7.12-16.32 13.11-5.97 9.45-2.46 35.07 13.37 27.62 7.79-3.66 23.54-30.41 19.37-38.48z"/>
					</g>
					<g id="&lt;Group&gt;" style="opacity: .53;mix-blend-mode: soft-light">
						<path id="&lt;Path&gt;" class="s23" d="m351.22 702.51c-0.99 14.32-12.89 28.78-27.16 30.3-6.03 20.03-24.99 35.94-45.89 36.82-9.4 12.16-22.81 21.15-37.62 25.23-4.34 1.19-8.87 1.98-13.33 1.41-4.47-0.56-8.73-2.71-11.4-6.33-11 7.01-23.48 12.79-36.52 12.28-11.51-0.46-23.64-6.59-28.14-16.82 76.36-19.39 97.42-118.65 102.54-154.02q3.02 1.79 5.71 3.84c1.27 0.97 14.48 12.59 14.45 12.62 8.85-7.58 22.26-8.86 32.87-4.04 10.62 4.83 18.55 15.3 21.18 26.65 13.92 3.48 24.3 17.75 23.31 32.06z"/>
					</g>
				</g>
			</g>
			<g id="&lt;Group&gt;">
				<path id="&lt;Path&gt;" class="s1" d="m973.29 401.81l-44.48 36.16 62.65-17.43c0 0 43.7 29.52 49.38 31.22 5.68 1.7 76.63-37.46 80.04-46.55 3.4-9.08-18.73-114.09-29.52-119.77-36.88-19.41-135.66 2.84-145.31 14.76-9.65 11.92-13.06 72.09-10.22 77.2 2.84 5.11 37.46 24.41 37.46 24.41z"/>
				<path id="&lt;Path&gt;" class="s4" d="m1004.78 389.57c0 0-30.36-74.9 2.77-81.11 33.12-6.22 22.77 46.92 22.77 46.92 0 0 17.25-36.28 46.93-8.48 29.67 27.81-72.47 42.67-72.47 42.67z"/>
			</g>
		</g>
		<g id="&lt;Group&gt;">
			<g id="&lt;Group&gt;">
				<path id="&lt;Path&gt;" class="s1" d="m295.23 511.9c-9.29 2.67-11.19 5.02-13.33 16.55-0.03 0.15-0.23 0.15-0.26 0-2.14-11.53-4.05-13.88-13.34-16.55-0.13-0.04-0.13-0.24 0-0.28 9.29-2.67 11.2-5.02 13.34-16.55 0.03-0.15 0.23-0.15 0.26 0 2.14 11.53 4.04 13.88 13.33 16.55 0.13 0.04 0.13 0.24 0 0.28z"/>
				<path id="&lt;Path&gt;" class="s1" d="m1241.08 472.42c-14.16 4.08-17.06 7.66-20.32 25.23-0.04 0.23-0.35 0.23-0.4 0-3.26-17.57-6.16-21.15-20.32-25.23-0.2-0.05-0.2-0.36 0-0.41 14.16-4.08 17.06-7.66 20.32-25.23 0.05-0.23 0.36-0.23 0.4 0 3.26 17.57 6.16 21.15 20.32 25.23 0.2 0.05 0.2 0.36 0 0.41z"/>
				<path id="&lt;Path&gt;" class="s20" d="m1210.95 682.88c-9.61 2.77-11.58 5.2-13.8 17.14-0.03 0.15-0.24 0.15-0.27 0-2.21-11.94-4.18-14.37-13.8-17.14-0.13-0.04-0.13-0.24 0-0.28 9.62-2.77 11.59-5.2 13.8-17.13 0.03-0.16 0.24-0.16 0.27 0 2.22 11.93 4.19 14.36 13.8 17.13 0.14 0.04 0.14 0.24 0 0.28z"/>
				<path id="&lt;Path&gt;" class="s1" d="m426.53 744.17c-9.61 2.77-11.58 5.19-13.8 17.13-0.03 0.16-0.24 0.16-0.26 0-2.22-11.94-4.19-14.36-13.81-17.13-0.13-0.04-0.13-0.25 0-0.29 9.62-2.76 11.59-5.19 13.81-17.13 0.02-0.15 0.23-0.15 0.26 0 2.22 11.94 4.19 14.37 13.8 17.13 0.14 0.04 0.14 0.25 0 0.29z"/>
				<path id="&lt;Path&gt;" class="s3" d="m310.02 883.3c-13.4 3.86-16.15 7.25-19.24 23.89-0.04 0.22-0.34 0.22-0.38 0-3.09-16.64-5.83-20.03-19.24-23.89-0.19-0.05-0.19-0.34 0-0.39 13.41-3.86 16.15-7.25 19.24-23.89 0.04-0.22 0.34-0.22 0.38 0 3.09 16.64 5.84 20.03 19.24 23.89 0.19 0.05 0.19 0.34 0 0.39z"/>
				<path id="&lt;Path&gt;" class="s1" d="m1414.18 927.21c-9.61 2.77-11.58 5.2-13.8 17.14-0.03 0.15-0.24 0.15-0.27 0-2.22-11.94-4.19-14.37-13.8-17.14-0.14-0.04-0.14-0.24 0-0.28 9.61-2.77 11.58-5.2 13.8-17.13 0.03-0.16 0.24-0.16 0.27 0 2.22 11.93 4.19 14.36 13.8 17.13 0.14 0.04 0.14 0.24 0 0.28z"/>
				<path id="&lt;Path&gt;" class="s3" d="m900.03 541.74c-13.4 3.86-16.15 7.24-19.24 23.88-0.04 0.22-0.33 0.22-0.37 0-3.1-16.64-5.84-20.02-19.25-23.88-0.19-0.06-0.19-0.35 0-0.4 13.41-3.86 16.15-7.25 19.25-23.89 0.04-0.22 0.33-0.22 0.37 0 3.09 16.64 5.84 20.03 19.24 23.89 0.19 0.05 0.19 0.34 0 0.4z"/>
			</g>
			<g id="&lt;Group&gt;">
				<path id="&lt;Path&gt;" class="s1" d="m190.56 948.84c0 0-62.44-26.99-49.62-44.14 12.82-17.14 30.14 10.09 30.14 10.09 0 0-8.61-31.49 12.14-31.49 20.75 0 7.34 65.54 7.34 65.54z"/>
				<path id="&lt;Path&gt;" class="s4" d="m1276.35 665.35c0 0-4.71-67.86 16.41-64.35 21.11 3.5 4.88 31.4 4.88 31.4 0 0 24.01-22.11 33.55-3.68 9.53 18.43-54.84 36.63-54.84 36.63z"/>
				<path id="&lt;Path&gt;" class="s1" d="m643.45 543.17c0 0-57.14-36.91-41.67-51.71 15.46-14.8 28.06 14.92 28.06 14.92 0 0-3.31-32.48 17.16-29.06 20.47 3.42-3.55 65.85-3.55 65.85z"/>
			</g>
		</g>
	</g>
	<g id="TEXTS">
	</g>
</svg>