<svg version="1.2" xmlns="http://www.w3.org/2000/svg" viewBox="0 0 1500 1000" width="1500" height="1000">
	<defs>
		<clipPath clipPathUnits="userSpaceOnUse" id="cp1">
			<path d="m1373.11 827.13h-1246.22v-654.26h1246.22z"/>
		</clipPath>
	</defs>
	<style>
		tspan { white-space:pre } 
		.s0 { fill: #fdf0d4 } 
		.s1 { fill: #f9f9f9 } 
		.s2 { fill: #ffffff } 
		.s3 { fill: #d4e4fe } 
		.s4 { fill: #fdfad4 } 
		.s5 { fill: #fdf4d4 } 
		.s6 { fill: #fdf9d4;stroke: #89b3e5;stroke-linecap: round;stroke-linejoin: round;stroke-width: 1.3 } 
		.s7 { fill: #a8c5ef } 
		.s8 { fill: #dbc79d } 
		.s9 { fill: #89b3e5 } 
		.s10 { fill: #efd5a8 } 
		.s11 { fill: #303549 } 
		.s12 { fill: #3d425b } 
		.s13 { fill: #f76357 } 
		.s14 { fill: #e54f48 } 
		.s15 { fill: #f8ab98 } 
		.s16 { fill: #204b62 } 
		.s17 { fill: none;stroke: #286681;stroke-miterlimit:10;stroke-width: 1.1 } 
		.s18 { fill: #458090 } 
		.s19 { fill: none;stroke: #309db2;stroke-miterlimit:10;stroke-width: 1.1 } 
		.s20 { fill: none;stroke: #309db2;stroke-miterlimit:10;stroke-width: 1.1;stroke-dasharray: 3.25972,2.17316 } 
		.s21 { fill: #85a0b9 } 
		.s22 { fill: #4d92a2 } 
		.s23 { fill: none;stroke: #68b6c6;stroke-miterlimit:10;stroke-width: 1.1 } 
		.s24 { fill: none;stroke: #68b6c6;stroke-miterlimit:10;stroke-width: 1.1;stroke-dasharray: 3.23216,2.15476 } 
		.s25 { fill: #89adc8 } 
		.s26 { fill: #3f7f8f } 
		.s27 { fill: #7dbdbb } 
		.s28 { fill: #62acaa } 
		.s29 { fill: #cd7d73 } 
		.s30 { fill: none;stroke: #da8a7a;stroke-miterlimit:10;stroke-width: 1.1 } 
		.s31 { fill: none;stroke: #da8a7a;stroke-miterlimit:10;stroke-width: 1 } 
		.s32 { fill: #efb294 } 
		.s33 { fill: #ffdf7f } 
		.s34 { fill: #e03f3f } 
		.s35 { fill: #6a2d31 } 
		.s36 { fill: none;stroke: #a5726c;stroke-miterlimit:10;stroke-width: 1 } 
		.s37 { fill: #095589 } 
		.s38 { fill: #743235 } 
		.s39 { fill: none;stroke: #ae7872;stroke-miterlimit:10;stroke-width: 1 } 
		.s40 { fill: #186ea8 } 
		.s41 { fill: #ba575b } 
		.s42 { fill: #fdc2a6 } 
		.s43 { fill: none;stroke: #d27b6a;stroke-miterlimit:10;stroke-width: 1.1 } 
		.s44 { fill: #da806b } 
		.s45 { fill: #e6f0fd } 
		.s46 { fill: #c95572 } 
		.s47 { fill: #b24e67 } 
		.s48 { fill: #563e3e } 
		.s49 { fill: #63b3c1 } 
		.s50 { fill: #4297a5 } 
		.s51 { fill: #ffd483 } 
		.s52 { fill: #e4c389 } 
		.s53 { fill: #38343a } 
		.s54 { fill: #465e7e } 
		.s55 { fill: #3e4964 } 
		.s56 { fill: none;stroke: #384763;stroke-miterlimit:10;stroke-width: 1.1 } 
	</style>
	<g id="BACKGROUND">
	</g>
	<g id="OBJECTS">
		<g id="&lt;Group&gt;">
			<g id="&lt;Group&gt;">
				<path id="&lt;Path&gt;" class="s0" d="m1373.11 827.13h-1246.22v-654.26h1246.22z"/>
				<g id="&lt;Group&gt;">
					<path id="&lt;Path&gt;" class="s1" d="m860.62 525.13c0 0-0.38 4.71-4.6 7.2 4.22 2.49 4.6 7.2 4.6 7.2 0 0 0.37-4.71 4.6-7.2-4.23-2.49-4.6-7.2-4.6-7.2z"/>
					<path id="&lt;Path&gt;" class="s1" d="m515.77 291.47c0 0-0.37 4.71-4.6 7.2 4.23 2.48 4.6 7.2 4.6 7.2 0 0 0.38-4.72 4.6-7.2-4.22-2.49-4.6-7.2-4.6-7.2z"/>
					<path id="&lt;Path&gt;" class="s1" d="m875.26 573.41c0 0-0.37 4.72-4.59 7.2 4.22 2.49 4.59 7.2 4.59 7.2 0 0 0.38-4.71 4.6-7.2-4.22-2.48-4.6-7.2-4.6-7.2z"/>
					<g id="&lt;Group&gt;">
						<path id="&lt;Path&gt;" class="s1" d="m707.27 227.74c0 0-0.73 9.08-8.86 13.87 8.13 4.79 8.86 13.87 8.86 13.87 0 0 0.72-9.08 8.86-13.87-8.14-4.79-8.86-13.87-8.86-13.87z"/>
						<path id="&lt;Path&gt;" class="s1" d="m717.35 217.99c0 0-0.38 4.71-4.6 7.2 4.22 2.48 4.6 7.2 4.6 7.2 0 0 0.38-4.72 4.6-7.2-4.22-2.49-4.6-7.2-4.6-7.2z"/>
					</g>
					<g id="&lt;Group&gt;">
						<path id="&lt;Path&gt;" class="s1" d="m1280.74 442.97c0 0-0.72 9.07-8.86 13.87 8.14 4.79 8.86 13.86 8.86 13.86 0 0 0.73-9.07 8.86-13.86-8.13-4.8-8.86-13.87-8.86-13.87z"/>
						<path id="&lt;Path&gt;" class="s1" d="m1263.93 421.2c0 0-0.38 4.72-4.6 7.2 4.22 2.49 4.6 7.2 4.6 7.2 0 0 0.37-4.71 4.6-7.2-4.23-2.48-4.6-7.2-4.6-7.2z"/>
					</g>
				</g>
				<g id="&lt;Clip Group&gt;" clip-path="url(#cp1)">
					<path id="&lt;Path&gt;" class="s2" d="m244.53 145.37c23.71 3.11 47.07 10.03 69.14 21.16 24.41 12.32 46.36 31.14 63.92 51.94 27.28 32.32 40.82 72.19 76.52 98.33 44.79 32.8 96.9 31.85 148.28 45.8 50.76 13.79 96.09 43.46 120.95 90.94 14.73 28.16 21.33 59.76 32.68 89.44 16.99 44.46 47.99 73.09 91.15 92.05 78.27 34.38 206.92 33.06 210.85 146.47 0.16 4.7 0 9.4-0.54 14.06-4.63 39.91-29.57 76.82-64.62 96.46-76.96 43.13-237.4 36.19-322 30.32-89.37-6.21-178.91-10.22-268.51-10.56-45.26-0.17-90.53 0.59-135.76 2.48-42.45 1.77-86.79 7.3-128.89-0.9-54.98-10.71-100.83-37.27-127.56-88.13-23.09-43.93-26.4-94.72-20.59-143.23 6.33-52.8 29.84-104.65 22.29-158.46-7.99-56.92-30.23-111.65-29.14-169.79 2.54-135.49 136.91-224.78 261.83-208.38z"/>
					<g id="&lt;Group&gt;">
						<g id="&lt;Group&gt;">
							<path id="&lt;Path&gt;" class="s3" d="m223.26 256.53c0 0-0.73 9.08-8.86 13.87 8.13 4.79 8.86 13.87 8.86 13.87 0 0 0.73-9.08 8.86-13.87-8.13-4.79-8.86-13.87-8.86-13.87z"/>
							<path id="&lt;Path&gt;" class="s3" d="m233.34 246.78c0 0-0.37 4.71-4.6 7.2 4.23 2.48 4.6 7.2 4.6 7.2 0 0 0.38-4.72 4.6-7.2-4.22-2.49-4.6-7.2-4.6-7.2z"/>
						</g>
						<g id="&lt;Group&gt;">
							<path id="&lt;Path&gt;" class="s3" d="m249.79 494.14c0 0-0.73 9.08-8.86 13.87 8.13 4.79 8.86 13.87 8.86 13.87 0 0 0.72-9.08 8.85-13.87-8.13-4.79-8.85-13.87-8.85-13.87z"/>
							<path id="&lt;Path&gt;" class="s3" d="m232.97 472.38c0 0-0.37 4.71-4.6 7.2 4.23 2.48 4.6 7.2 4.6 7.2 0 0 0.38-4.72 4.6-7.2-4.22-2.49-4.6-7.2-4.6-7.2z"/>
						</g>
						<g id="&lt;Group&gt;">
							<path id="&lt;Path&gt;" class="s4" d="m762.19 751.65c0 0-0.73 9.08-8.86 13.87 8.13 4.79 8.86 13.87 8.86 13.87 0 0 0.73-9.08 8.86-13.87-8.13-4.79-8.86-13.87-8.86-13.87z"/>
							<path id="&lt;Path&gt;" class="s5" d="m745.37 730.89c0 0-0.37 4.71-4.59 7.2 4.22 2.49 4.59 7.2 4.59 7.2 0 0 0.38-4.71 4.6-7.2-4.22-2.49-4.6-7.2-4.6-7.2z"/>
						</g>
					</g>
					<path id="&lt;Path&gt;" class="s6" d="m-14.83 250.89c-3.69-6.18-6.42-13.69-7.93-22.87-1.68-10.2-0.64-20.89 3.92-30.11 10.49-21.2 31.88-23.9 50.25-35.69 19.7-12.64 34.52-30.95 51.42-46.61 26.26-24.32 70.03-37.19 105.68-21.83 29.82 12.85 43.3 42.76 56.19 69.5 12.99 26.95 35.74 51.69 40.55 81.59 5.09 31.71-14.55 62.24-41.24 78.87-22.53 14.04-49.71 12.05-73.57 0.82-24.56-11.55-47.65-26.3-73.75-34.45-38.07-11.89-90.49-3.96-111.52-39.22z"/>
					<g id="&lt;Group&gt;">
						<g id="&lt;Group&gt;">
							<g id="&lt;Group&gt;">
								<g id="&lt;Group&gt;">
								</g>
							</g>
							<g id="&lt;Group&gt;">
								<g id="&lt;Group&gt;">
									<g id="&lt;Group&gt;">
									</g>
								</g>
								<g id="&lt;Group&gt;">
									<g id="&lt;Group&gt;">
										<path id="&lt;Path&gt;" class="s7" d="m188.48 687.15c1.84 2.95 3.43 6.08 4.9 9.23 2.95 6.33 5.43 13.09 6.14 20.08 0.04 0.4 0.66 0.4 0.62 0-0.7-6.88-3.08-13.53-5.94-19.79-1.54-3.36-3.23-6.69-5.19-9.83-0.21-0.34-0.75-0.03-0.53 0.31z"/>
									</g>
								</g>
								<g id="&lt;Group&gt;">
									<g id="&lt;Group&gt;">
										<path id="&lt;Path&gt;" class="s7" d="m230.92 689.57c-3.07 0.48-6.1 1.45-9 2.54-6.08 2.28-11.8 5.57-16.52 10.06-0.29 0.28 0.15 0.72 0.44 0.44 4.78-4.55 10.62-7.86 16.8-10.11 2.73-0.99 5.57-1.88 8.44-2.33 0.4-0.07 0.23-0.66-0.16-0.6z"/>
									</g>
								</g>
								<g id="&lt;Group&gt;">
									<g id="&lt;Group&gt;">
										<path id="&lt;Path&gt;" class="s7" d="m172.87 718.56c0.25 3.59 0.17 7.23-0.01 10.82-0.39 7.88-1.56 15.76-3.97 23.29-0.12 0.38 0.48 0.54 0.6 0.16 2.39-7.46 3.56-15.29 3.97-23.11 0.2-3.7 0.29-7.45 0.03-11.16-0.03-0.39-0.65-0.39-0.62 0z"/>
									</g>
								</g>
								<g id="&lt;Group&gt;">
									<g id="&lt;Group&gt;">
										<path id="&lt;Path&gt;" class="s7" d="m190.02 760.71c-3.9-0.56-7.89-0.69-11.82-0.62-7.62 0.12-15.4 1.17-22.43 4.25-0.37 0.16-0.05 0.69 0.31 0.53 7.02-3.07 14.83-4.07 22.44-4.17 3.76-0.04 7.6 0.07 11.33 0.6 0.39 0.06 0.56-0.54 0.17-0.59z"/>
									</g>
								</g>
								<g id="&lt;Group&gt;">
									<g id="&lt;Group&gt;">
										<path id="&lt;Path&gt;" class="s7" d="m143.62 743.16c1.16 2.87 1.79 6.02 2.25 9.06 1.17 7.73 0.7 15.64-1.24 23.2-0.1 0.39 0.49 0.55 0.59 0.16 1.92-7.47 2.41-15.27 1.33-22.92-0.45-3.24-1.1-6.61-2.34-9.66-0.14-0.37-0.74-0.21-0.59 0.16z"/>
									</g>
								</g>
							</g>
						</g>
						<g id="&lt;Group&gt;">
							<path id="&lt;Path&gt;" class="s8" d="m131.27 829.14c0 0 12.53-14.09 38.49-36.71 25.96-22.62 63.68-42.26 83.58-49.57 19.9-7.32 41.34-5.86 44.63 0.19 3.29 6.04-8.15 23.6-40.13 37.47-31.99 13.88-84.31 25.07-122.44 51.61z"/>
							<g id="&lt;Group&gt;">
								<g id="&lt;Group&gt;">
									<path id="&lt;Path&gt;" class="s9" d="m260.23 754.2c-1.97 0.69-3.9 1.48-5.82 2.27-5.56 2.28-11.03 4.76-16.44 7.36-8.74 4.19-17.32 8.7-25.77 13.43-11.47 6.43-22.7 13.27-33.7 20.44-13.69 8.92-27.03 18.36-40.05 28.23q-2.76 2.09-5.49 4.21c-0.45 0.35-0.01 1.13 0.45 0.78 13.25-10.24 26.83-20.04 40.78-29.3 11.25-7.48 22.73-14.61 34.46-21.32 8.79-5.01 17.71-9.79 26.79-14.24 5.84-2.87 11.74-5.6 17.74-8.11q2.48-1.05 4.99-2.02c0.7-0.27 1.55-0.46 2.21-0.83q0.04-0.02 0.09-0.03c0.54-0.19 0.31-1.06-0.24-0.87z"/>
								</g>
							</g>
						</g>
						<g id="&lt;Group&gt;">
							<path id="&lt;Path&gt;" class="s10" d="m166.94 829.7c0 0 13.02-8.99 38.68-22.27 25.67-13.28 60.32-21.79 77.99-23.8 17.68-2 34.88 3.45 36.35 9.03 1.48 5.59-11.33 17.63-40.17 22.58-28.83 4.94-73.71 3.67-110.08 17.72z"/>
							<g id="&lt;Group&gt;">
								<g id="&lt;Group&gt;">
									<path id="&lt;Path&gt;" class="s9" d="m286.99 794.25c-6.77 0.66-13.52 2.04-20.16 3.44-18.84 3.99-37.36 9.51-55.52 15.91-14.65 5.17-29.08 10.98-43.27 17.29-0.45 0.2-0.06 0.85 0.38 0.65 23.2-10.31 47.03-19.29 71.45-26.3 13.33-3.83 26.87-7.15 40.58-9.33 2.17-0.35 4.35-0.69 6.54-0.9 0.48-0.05 0.48-0.8 0-0.76z"/>
								</g>
							</g>
						</g>
					</g>
				</g>
				<g id="&lt;Group&gt;">
					<g id="&lt;Group&gt;">
						<path id="&lt;Path&gt;" class="s0" d="m556.31 550.55c-75.24 1.05-150.42 7.03-224.88 17.9-49.04 7.16-102.44 19.19-132.29 58.75-18.25 24.19-17.76 57.71 5.67 78.41 10.13 8.95 22.81 14.57 35.77 18.39 25.94 7.66 53.83 8.44 80.2 2.55 27.33-6.11 46.05-21.98 70.62-33.7 15.15-7.22 37.98-9.61 48.74 6.32 6.35 9.41 8.03 17.05 17.97 23.9 25.18 17.36 61.21 18.69 90.73 19.94 29.51 1.24 59.23 1.25 88.54-2.82 21.62-2.99 50.49-6.75 65.42-24.69 4.65-5.58 5.18-15.14-0.7-19.4 0.59 0.42 10.63-4.41 12.41-4.98 5.32-1.68 10.78-2.92 16.28-3.86 11.42-1.98 23.06-2.56 34.65-2.36 31.87 0.55 73.14 7.93 100.84-12.34 10.15-7.43 17.43-19.76 16.05-32.27-1.43-13.01-11.76-23.59-23.5-29.38-30.22-14.9-66.09-3.52-99.78-3.81-2.12-0.02-4.43-0.15-6.05-1.51-1.97-1.66-2.27-4.51-2.74-7.03-3.35-18.14-21.14-29.92-38.53-36.07-25.45-9-52.86-10.53-79.85-11.34q-37.78-1.13-75.57-0.6z"/>
					</g>
					<g id="&lt;Group&gt;">
						<g id="&lt;Group&gt;">
							<g id="&lt;Group&gt;">
								<path id="&lt;Path&gt;" class="s11" d="m687.57 567.49c0.98 10.83 5.39 37.42 6.87 42.84 1.3 4.77 2.46 7.88-2.47 7.38-4.92-0.49-5.91-1.47-8.86-9.85-2.95-8.37-6.11-30.07-7.85-41.36-1.97-12.8-2.96-47.27-2.96-47.27h13.3c0 0 0.98 37.42 1.97 48.26z"/>
								<path id="&lt;Path&gt;" class="s11" d="m637.47 505.44c0.29 10.23 1.06 35.29 1.84 43.83 0.98 10.83 5.39 37.42 6.87 42.84 1.3 4.77 2.46 7.88-2.46 7.38-4.93-0.49-5.91-1.47-8.87-9.85-2.95-8.37-6.11-30.07-7.85-41.36-1.53-9.98-2.47-33.11-2.81-42.84z"/>
								<path id="&lt;Path&gt;" class="s12" d="m598.1 577.59c0.98-10.83 1.97-55.74 1.97-55.74h13.29c0 0-0.99 41.96-2.95 54.76-1.74 11.29-4.9 32.99-7.86 41.36-2.95 8.37-3.94 9.36-8.86 9.85-4.93 0.49-3.76-2.61-2.46-7.39 1.48-5.41 5.88-32 6.87-42.84z"/>
								<path id="&lt;Path&gt;" class="s12" d="m562.15 559.37c0.78-8.54 1.55-41.08 1.85-51.31h13.27c-0.34 9.73-1.28 40.35-2.81 50.33-1.74 11.29-4.9 32.99-7.85 41.36-2.96 8.37-3.94 9.36-8.87 9.85-4.92 0.49-3.76-2.61-2.46-7.39 1.48-5.41 5.88-32 6.87-42.84z"/>
							</g>
							<g id="&lt;Group&gt;">
								<path id="&lt;Path&gt;" class="s13" d="m655.07 403.68c0 0 30.04-1.64 37.42 0 5.3 1.18 13.79 3.28 10.51 15.75-3.29 12.48-9.2 55.15-9.85 72.88-0.66 17.73-0.66 32.17-9.2 34.14-8.53 1.97-73.53 0-73.53 0 0 0-11.16 0-24.95-5.25-13.78-5.25-22.32-8.54-22.32-8.54 0 0-8.53-5.25 8.54-7.22 17.07-1.97 74.84 0.66 74.84 0.66z"/>
								<path id="&lt;Path&gt;" class="s14" d="m571.69 505.44c17.07-1.97 74.84 0.66 74.84 0.66l8.54-102.42c0 0 30.04-1.64 37.42 0q1.07 0.23 2.27 0.54c0.77 2.15 0.87 4.99-0.13 8.81-3.29 12.48-9.2 55.15-9.85 72.88-0.24 6.42-1.55 24.7-7.74 29.73-6.19 5.03-20.52 2.47-24.92 2.61-20.37 0.62-50.72 0.49-50.72 0.49 0 0-10.51 1.31-24.3-3.94-6.56-2.5-11.92-4.55-15.75-6.02 0.86-1.27 3.6-2.56 10.34-3.34z"/>
							</g>
						</g>
						<g id="&lt;Group&gt;">
							<g id="&lt;Group&gt;">
								<path id="&lt;Path&gt;" class="s15" d="m552.24 555.19l-7.26 32.06-17.66-2.8 5.28-32.88z"/>
								<g id="&lt;Group&gt;">
									<path id="&lt;Path&gt;" class="s16" d="m525.18 581.77c-2.05 3.23-2.32 2.86-9.01 7.84-3.32 2.47-5.43 2.93-9.13 5.55-4.33 3.08-8.11 8.38-2.84 11.97 2.61 1.78 13.33 4.53 21.98-0.25 9.86-5.43 18.67-5.78 21.34-9.48 2.68-3.7-1.71-14.58-1.71-14.58 0 0-2.45 2.7-4.84 2.68-2.38-0.02-4.23-1.32-4.23-1.32 0 0-0.11-3.76-3.78-4.31-3.66-0.55-6.61 0.05-7.78 1.9z"/>
									<path id="&lt;Path&gt;" class="s17" d="m524.8 591.48c0 0 8.39-2.16 11.18-6.73"/>
									<path id="&lt;Path&gt;" class="s17" d="m503.41 602c0 0 2.65 2.79 8.88 3 6.23 0.2 7.13 0.92 12.43-1.19 5.31-2.12 8.09-4.77 12.53-6.16 4.44-1.38 8.15-1.71 10.08-3.63"/>
								</g>
							</g>
							<g id="&lt;Group&gt;">
								<g id="&lt;Group&gt;">
									<g id="&lt;Group&gt;">
										<path id="&lt;Path&gt;" class="s18" d="m618.52 475.79c0 0-68.26-7.74-76.28 7.6-8.03 15.34-16.09 77.51-14.61 79.73 1.49 2.22 23.53 4.5 24.23 2.11 1.27-4.35 12.2-49.39 15.54-53.78 3.34-4.39 29.68 2.85 42.75 3.32 13.55 0.48 33.14 3.5 37.98-4.27 4.52-7.25 4.1-28.44 4.1-28.44z"/>
									</g>
									<g id="&lt;Group&gt;">
										<g id="&lt;Group&gt;">
											<path id="&lt;Path&gt;" class="s19" d="m642.4 505.26c0 0-0.47 0.33-1.35 0.86"/>
											<path id="&lt;Path&gt;" class="s20" d="m639.17 507.19c-5.47 2.94-17.27 7.84-30.67 4.63-18.47-4.42-44.14-11.67-47.37-4.35-2.77 6.28-12.09 41.85-14.67 51.83"/>
											<path id="&lt;Path&gt;" class="s19" d="m546.18 560.36c-0.26 0.99-0.4 1.55-0.4 1.55"/>
										</g>
									</g>
								</g>
								<path id="&lt;Path&gt;" class="s21" d="m527.5 559.01c0 0 3.78 2.97 10.73 4.12 6.96 1.15 14.82-0.76 14.82-0.76 0 0 0.32 4.8-1.96 6.93-2.29 2.13-7.71 2.59-14.61 1.88-6.9-0.72-9.98-3.65-10.55-6.45-0.56-2.8 1.57-5.72 1.57-5.72z"/>
							</g>
							<g id="&lt;Group&gt;">
								<path id="&lt;Path&gt;" class="s15" d="m622.39 403.31c-4.41 1.37-10.99 19.59-11.91 26.52-0.93 6.92-3.19 23.74-3.19 23.74 0 0-9.01 1.63-13.63 3.76-4.63 2.13-16.8 10.2-16.8 10.2l2.84 9.27c0 0 35.34-0.01 41.14-7.07 8.79-10.7 10.54-29.02 11.27-47.33 0.37-9.27-5.06-20.53-9.72-19.09z"/>
								<g id="&lt;Group&gt;">
									<g id="&lt;Group&gt;">
										<path id="&lt;Path&gt;" class="s15" d="m550.6 474.04c0.85-3.95 4.43-8.64 7.37-9.61 3.97-1.31 10.68-3.54 14.61-2.14 1.35 0.48 7.93 1.62 10.29 3.42 2.36 1.8 2.52 10.22 0.12 11.43-2.39 1.21-5.12 1.7-5.93 1.69-3.34-0.05-7.83 0.19-9.31 0.33-2.57 0.24-5.35 2.97-6.63 0.1-1.28-2.85 3.43-4.65 1.8-4.92-0.82-0.14-2.51-0.04-3.99 1.84-1.44 1.82-2.79 3.56-3.74 4.49-2.33 2.29-3.71-2.18-3.71-2.18 0 0-1.72-0.57-0.88-4.45z"/>
										<g id="&lt;Group&gt;">
											<path id="&lt;Path&gt;" class="s15" d="m552.07 477.35c0 0 1.98-4.43 4.79-6.91 2.81-2.48 7.64-2.37 7.64-2.37"/>
											<path id="&lt;Path&gt;" class="s15" d="m563.29 474.63c0.97-1.54 5.63-2.73 7.07-2.43"/>
										</g>
									</g>
								</g>
							</g>
							<g id="&lt;Group&gt;">
								<g id="&lt;Group&gt;">
									<path id="&lt;Path&gt;" class="s15" d="m586.52 567.56l-3.99 32.54-17.86-1.01 1.94-33.25z"/>
									<g id="&lt;Group&gt;">
										<path id="&lt;Path&gt;" class="s16" d="m562.27 596.63c-1.71 3.43-2.01 3.09-8.17 8.71-3.06 2.8-5.11 3.46-8.52 6.45-4.01 3.5-7.23 9.15-1.63 12.2 2.78 1.5 13.72 3.15 21.85-2.47 9.25-6.4 17.99-7.63 20.28-11.58 2.29-3.96-3.18-14.34-3.18-14.34 0 0-2.17 2.93-4.54 3.16-2.37 0.22-4.34-0.89-4.34-0.89 0 0-0.5-3.73-4.2-3.91-3.7-0.18-6.57 0.72-7.55 2.67z"/>
										<path id="&lt;Path&gt;" class="s17" d="m562.87 606.34c0 0 8.13-3 10.44-7.83"/>
										<path id="&lt;Path&gt;" class="s17" d="m542.65 618.96c0 0 2.92 2.5 9.13 2.08 6.22-0.42 7.19 0.2 12.26-2.43 5.06-2.64 7.57-5.56 11.84-7.39 4.28-1.82 7.94-2.52 9.66-4.63"/>
									</g>
								</g>
								<g id="&lt;Group&gt;">
									<g id="&lt;Group&gt;">
										<path id="&lt;Path&gt;" class="s22" d="m640.8 481.18c0 0-67.27 3.46-75.06 16.68-8.8 14.96-3.67 77.85-1.9 79.84 1.77 1.98 23.91 0.67 24.28-1.79 0.66-4.5 4.45-48.1 7.16-52.93 2.71-4.83 22.82-2.91 38.73-2.58 6.97 0.15 19.15 0.06 25.52-1.99 6.01-1.94 11.65-6.05 13.47-10.12 3.48-7.83 0.19-28.75 0.19-28.75z"/>
									</g>
									<g id="&lt;Group&gt;">
										<g id="&lt;Group&gt;">
											<g id="&lt;Group&gt;">
												<path id="&lt;Path&gt;" class="s23" d="m666.6 503.92c0 0-0.41 0.4-1.21 1.04"/>
												<path id="&lt;Path&gt;" class="s24" d="m663.7 506.28c-5.01 3.69-16.05 10.27-29.78 9.02-18.9-1.73-41.44-2.61-43.64 5.1-1.88 6.58-5.34 40.52-6.31 50.35"/>
												<path id="&lt;Path&gt;" class="s23" d="m583.86 571.83c-0.1 1.02-0.15 1.59-0.15 1.59"/>
											</g>
										</g>
									</g>
									<path id="&lt;Path&gt;" class="s25" d="m563.62 573.15c0 0 4.31 2.11 11.35 1.77 7.05-0.33 13.7-2.82 13.7-2.82 0 0 1.98 3.8 0.19 6.37-1.78 2.56-7.01 3.93-13.91 4.69-6.89 0.75-11.61-1.21-12.76-3.83-1.13-2.62 1.43-6.18 1.43-6.18z"/>
								</g>
							</g>
							<path id="&lt;Path&gt;" class="s26" d="m640.8 481.18c0 0-4.71 0.25-11.79 0.85-6.36 2.48-11.98 3.61-15.37 3.47-3.42-0.14-7.5-0.29-11.06-0.4-2.89 0.44-5.78 0.93-8.6 1.47 0.33 1.13 1.44 2.68 4.73 4.24 6.3 2.99 5.64 5.31 10.95 4.65 5.31-0.67 9.29-2 15.93-1.33 6.64 0.66 17.59-2.66 23.9-1.66 4.63 0.73 16.24 5.92 25.1 3.25-0.12-8.03-1.4-16.18-1.4-16.18z"/>
							<g id="&lt;Group&gt;">
								<path id="&lt;Path&gt;" class="s27" d="m658.81 493.92c4.55 2.74 12.25 6.34 14.62 8.15 2.38 1.82 4.14-4.77 4.14-8.16-0.01-3.38-0.76-6.12-0.76-6.12 0 0 1.39-9.17 1.52-13.13 0.15-4.29 2.22-11.85 2.73-15.36 0.39-2.75 1.29-8.14 1.29-8.14 0 0 3.16-6.02 5.14-16.13 1.97-10.1 1.73-24.37-0.99-31.33-5.97-15.27-25.93-18.3-43.32-18.57-17.39-0.27-27.38 6.44-30.16 14.11-2.77 7.66-4.6 18.4-5 22.44-0.39 4.05-3.31 9.67-2.43 11.07 0.88 1.39 10.2 3.8 10.2 3.8 0 0-0.71 12.61-0.99 16.17-1.27 16.53-4.83 22.61-4.83 22.61 0 0 14.61 5.84 23.55 8.34 8.93 2.49 16.83 5.16 25.29 10.25z"/>
								<path id="&lt;Path&gt;" class="s28" d="m676.81 487.79c0 0 1.39-9.17 1.52-13.13 0.15-4.29 2.22-11.85 2.73-15.36 0.39-2.75 1.29-8.14 1.29-8.14 0 0 3.16-6.02 5.14-16.13 1.97-10.1 1.73-24.37-0.99-31.33-0.33-0.83-1.11-2.38-1.11-2.38 0 0 1.27 7.51-2.38 26.1-3.65 18.58-5.65 34.51-18.92 49.45-7.73 8.7-26.8 1.97-35.46 5.3 1.73 0.56 3.39 1.08 4.89 1.5 8.93 2.49 16.83 5.16 25.29 10.25 0.94 0.57 2.01 1.17 3.14 1.78 5.28 1.07 11.05 1.38 15.6-1.25q0.01-0.28 0.02-0.54c-0.01-3.38-0.76-6.12-0.76-6.12z"/>
							</g>
							<g id="&lt;Group&gt;">
								<path id="&lt;Path&gt;" class="s15" d="m637.58 376.9l-1.6 14.05c0 0 0.51 4.74 9.49 4.57 8.98-0.17 14.4-6.94 14.4-6.94l-1.52-14.58z"/>
								<g id="&lt;Group&gt;">
									<path id="&lt;Path&gt;" class="s11" d="m634.03 337.82c0 0-7.35 3.81-7.59 14.49-0.23 10.68 3.91 11.71 7.36 9.42 3.45-2.29 14.22-14.61 14.22-14.61l-3.84-12.49z"/>
									<path id="&lt;Path&gt;" class="s15" d="m630.56 345.53c-5.19 11.99-4.41 35.25 7.44 37.6 12.82 2.54 21.7-2.01 25.43-18.28 3.73-16.27-3.33-26.45-8.47-27.79-3.99-1.04-19.2-3.51-24.4 8.47z"/>
									<path id="&lt;Path&gt;" class="s11" d="m629.42 341.06c2.11-0.53 4.64-7.76 12.67-9.34 8.04-1.58 13.18 3.52 13.18 3.52 0 0 7.08-1.58 11.38 3.95 1.61 2.06 4.56 9.53 4.6 14.16 0.04 4.62-4.24 14.05-4.24 14.05 0 0-1.93 4.98-3.73 2.31-1.79-2.67-4.92-1.03-5.45-2.81-0.52-1.79-0.15-7.52-0.91-9.9-0.76-2.38-5.85-7.63-5.85-7.63 0 0-7.38 2.12-14.23 2.12-6.85 0.01-9.78-2-11.37-3.58-1.58-1.58-3.43-5-1.58-6.32 1.84-1.32 3.42 0 5.53-0.53z"/>
									<path id="&lt;Path&gt;" class="s15" d="m660.55 365.68c1.9-5.6 7.53-4.89 7.69-0.85 0.15 4.04-3.44 8.49-7.08 8.58-3.64 0.09-1.71-4.47-0.61-7.73z"/>
									<g id="&lt;Group&gt;">
										<g id="&lt;Group&gt;">
											<path id="&lt;Path&gt;" class="s11" d="m647.64 364.25c-0.42 1.01-1.58 1.49-2.59 1.07-1.01-0.42-1.49-1.57-1.07-2.58 0.42-1.01 1.57-1.49 2.58-1.07 1.01 0.41 1.49 1.57 1.08 2.58z"/>
										</g>
										<g id="&lt;Group&gt;">
											<path id="&lt;Path&gt;" class="s11" d="m634.02 363.11c-0.42 1.01-1.57 1.49-2.58 1.08-1.01-0.42-1.49-1.58-1.07-2.58 0.41-1.02 1.57-1.49 2.58-1.08 1.01 0.42 1.49 1.58 1.07 2.58z"/>
										</g>
										<g id="&lt;Group&gt;">
											<path id="&lt;Path&gt;" class="s29" d="m638.53 358.72c0.11 1.34 0.06 2.67-0.04 4q-0.07 0.99-0.2 1.98l-0.07 0.5c-0.17 0.53-0.35 0.65-0.49 0.83-0.3 0.3-0.55 0.5-0.8 0.71-0.48 0.42-0.94 0.81-1.19 1.14-0.12 0.18-0.14 0.28-0.16 0.31-0.01 0.06-0.03 0.13 0.16 0.38 0.72 1.05 1.48 2.08 2.17 3.29-1.33-0.46-2.44-1.26-3.44-2.17-0.25-0.22-0.66-0.72-0.73-1.32-0.09-0.62 0.16-1.16 0.39-1.53 0.49-0.75 1.05-1.2 1.58-1.6 0.26-0.2 0.52-0.4 0.69-0.55 0.09-0.05 0.14-0.18 0.07 0.03l0.12-0.45q0.24-0.94 0.53-1.87c0.39-1.23 0.82-2.47 1.41-3.68z"/>
										</g>
										<g id="&lt;Group&gt;">
											<g id="&lt;Group&gt;">
												<path id="&lt;Path&gt;" class="s11" d="m629.91 357.52q-0.11-0.06-0.22-0.12-0.05 0.42-0.11 0.85c0.87-0.22 1.69-0.45 2.59-0.48 0.88-0.04 1.73 0.05 2.56 0.36 0.18 0.07 0.42-0.01 0.55-0.14q0.02-0.02 0.04-0.04-0.1 0.06-0.2 0.11 0.49-0.18 0.27-0.65 0.03 0.12 0.06 0.23 0-0.03 0-0.05c-0.01-0.27-0.18-0.46-0.42-0.55-0.91-0.34-1.94-0.46-2.91-0.39-0.98 0.07-2.04 0.25-2.9 0.75-0.34 0.2-0.28 0.75 0.11 0.85q0.12 0.03 0.24 0.06c0.47 0.12 0.77-0.54 0.34-0.79z"/>
											</g>
										</g>
										<g id="&lt;Group&gt;">
											<g id="&lt;Group&gt;">
												<path id="&lt;Path&gt;" class="s11" d="m644.47 357.88q-0.1-0.09-0.2-0.18-0.16 0.4-0.33 0.79c1.02 0.04 2 0.06 3 0.28 0.96 0.22 1.89 0.55 2.72 1.1 0.17 0.11 0.4 0.09 0.57 0q-0.21 0.04-0.07 0.02 0.05-0.01 0.09-0.02 0.03-0.01 0.06-0.02c0.12-0.04 0.21-0.14 0.21-0.26 0-0.1 0.01-0.36-0.03-0.06q0.07-0.41-0.26-0.64c-0.91-0.6-1.98-1-3.04-1.21-1.09-0.21-2.28-0.33-3.37-0.1-0.39 0.08-0.46 0.67-0.11 0.85q0.12 0.06 0.24 0.13c0.41 0.22 0.9-0.34 0.52-0.68z"/>
											</g>
										</g>
										<path id="&lt;Path&gt;" class="s30" d="m634.79 373.83c0 0 1.4 2.93 5.26 2.38 4.74-0.68 4.74-3.22 4.74-3.22"/>
									</g>
								</g>
							</g>
							<g id="&lt;Group&gt;">
								<g id="&lt;Group&gt;">
									<path id="&lt;Path&gt;" class="s15" d="m670.35 449.56c-5.64-1.4-13.71-5.43-13.71-5.43l-3.83 23.78-29.11 9.32 2.71 10.83c0 0 38.02 5.16 44.64-2.75 3.45-4.14 7.09-19.66 9.25-34.61-3.47 0.18-7.1-0.43-9.95-1.14z"/>
									<g id="&lt;Group&gt;">
										<path id="&lt;Path&gt;" class="s15" d="m626.47 477.94c-3.01-2.37-10.2-4-13.71-5.05-3.5-1.05-11.03 0.77-13.29 1.37-4.68 1.23-6.53 6.19-5.08 7.81 1.45 1.63 2.96 0.65 2.96 0.65 0 0-1.19 2.66-0.39 4.09 0.81 1.42 3.61 1.61 4.58 1.09-0.58 2.67 3.93 2.57 4.15 2.48 0.56 2.18 3.3 2.69 6.24 1.74 2.02-0.65 7.71-1.94 7.71-1.94 0 0 6.64 1.12 8.12 0.57 1.48-0.54 5.27-0.44 5.2-3.04-0.08-2.61-3.49-7.4-6.49-9.77z"/>
										<path id="&lt;Path&gt;" class="s31" d="m598.16 481.84c0 0 1.76-5.05 9.24-5.51"/>
										<path id="&lt;Path&gt;" class="s31" d="m602.02 487.19c0 0 1.64-6.5 10.22-7.21"/>
										<path id="&lt;Path&gt;" class="s31" d="m606.75 489.6c6.82-7.69 12.23-4.38 11.56-4.61"/>
									</g>
								</g>
								<path id="&lt;Path&gt;" class="s32" d="m678.09 450.71c-2.37 8.68-4.72 17.75-5.7 21.51-1.99 7.64-7.3 13.61-16.6 13.61-9.29 0-20.91-1.33-23.56 0.66-2.66 2-5.64 1.33-8.63 0.67-2.99-0.67-6.64 1.66-11.62 3.65-1.93 0.77-3.91 0.89-5.61 0.75 1.11 1.14 3.26 1.3 5.56 0.56 2.02-0.65 7.71-1.94 7.71-1.94 0 0 6.64 1.12 8.12 0.57 1.24-0.45 4.1-0.46 4.95-1.98 11.08 1.07 33.41 2.43 38.34-3.46 3.45-4.14 7.09-19.66 9.25-34.61q-1.1 0.05-2.21 0.01z"/>
							</g>
						</g>
					</g>
					<g id="&lt;Group&gt;">
						<g id="&lt;Group&gt;">
							<path id="&lt;Path&gt;" class="s33" d="m485.7 312.52h-66.9c-8.43 0-15.28 6.84-15.28 15.28v29.73c0 8.44 6.85 15.28 15.28 15.28h12.44c-0.49 1.94-1.38 3.97-2.93 5.66-4.62 5.04-9.66 7.56-9.66 7.56 0 0 18.9 1.68 24.78-7.14 1.55-2.32 2.48-4.35 3.02-6.08h39.25c8.43 0 15.27-6.84 15.27-15.28v-29.73c0-8.44-6.84-15.28-15.27-15.28z"/>
							<g id="&lt;Group&gt;">
								<g id="&lt;Group&gt;">
									<path id="&lt;Path&gt;" class="s2" d="m485.55 327.42h-66.6v-2.49h66.6z"/>
								</g>
								<g id="&lt;Group&gt;">
									<path id="&lt;Path&gt;" class="s2" d="m485.55 349.41h-66.6v-2.49h66.6z"/>
								</g>
								<g id="&lt;Group&gt;">
									<path id="&lt;Path&gt;" class="s2" d="m485.55 360.41h-66.6v-2.49h66.6z"/>
								</g>
								<g id="&lt;Group&gt;">
									<path id="&lt;Path&gt;" class="s2" d="m485.55 338.41h-66.6v-2.49h66.6z"/>
								</g>
							</g>
						</g>
						<g id="&lt;Group&gt;">
							<path id="&lt;Path&gt;" class="s11" d="m339.71 364.75c0 0 29.07-1.56 31.52 15.98 0.63 4.5 0.4 9.11-0.49 11.43-0.89 2.32-0.78 7.16-2.78 13.48-1.99 6.32 4.32 12.63 0.67 20.61-3.66 7.98-31.92 4.99-36.57-2.33-4.65-7.31 7.65-59.17 7.65-59.17z"/>
							<g id="&lt;Group&gt;">
								<g id="&lt;Group&gt;">
									<path id="&lt;Path&gt;" class="s12" d="m296.47 599.92c-0.98 10.69-5.32 36.93-6.78 42.27-1.29 4.72-2.43 7.78 2.43 7.29 4.86-0.48 5.83-1.45 8.74-9.72 2.92-8.26 6.04-29.68 7.75-40.81 1.95-12.64 2.92-46.65 2.92-46.65h-13.12c0 0-0.97 36.93-1.94 47.62z"/>
									<path id="&lt;Path&gt;" class="s12" d="m345.91 538.69c-0.29 10.09-1.06 34.82-1.82 43.25-0.97 10.69-5.32 36.93-6.78 42.28-1.29 4.71-2.43 7.77 2.43 7.28 4.86-0.48 5.83-1.45 8.75-9.72 2.91-8.26 6.03-29.67 7.74-40.81 1.52-9.85 2.45-32.69 2.78-42.28z"/>
									<path id="&lt;Path&gt;" class="s11" d="m384.76 609.89c-0.97-10.69-1.94-55.01-1.94-55.01h-13.12c0 0 0.97 41.4 2.91 54.04 1.72 11.14 4.84 32.56 7.75 40.82 2.92 8.26 3.89 9.23 8.75 9.72 4.86 0.48 3.71-2.58 2.43-7.29-1.46-5.35-5.81-31.59-6.78-42.28z"/>
									<path id="&lt;Path&gt;" class="s11" d="m420.24 591.91c-0.77-8.43-1.54-40.54-1.83-50.63h-13.1c0.34 9.59 1.26 39.81 2.78 49.66 1.71 11.14 4.83 32.56 7.75 40.82 2.91 8.26 3.88 9.23 8.74 9.72 4.86 0.48 3.72-2.58 2.43-7.29-1.46-5.35-5.8-31.59-6.77-42.28z"/>
								</g>
								<g id="&lt;Group&gt;">
									<path id="&lt;Path&gt;" class="s13" d="m328.54 438.26c0 0-29.65-1.62-36.93 0-5.24 1.17-13.61 3.24-10.37 15.55 3.24 12.31 9.07 54.43 9.72 71.92 0.65 17.49 0.65 31.75 9.07 33.69 8.42 1.95 72.57 0 72.57 0 0 0 11.01 0 24.62-5.18 13.6-5.18 22.03-8.42 22.03-8.42 0 0 8.42-5.19-8.43-7.13-16.84-1.94-73.86 0.65-73.86 0.65z"/>
									<path id="&lt;Path&gt;" class="s14" d="m410.82 538.69c-16.84-1.94-73.86 0.65-73.86 0.65l-8.42-101.08c0 0-29.65-1.62-36.93 0q-1.06 0.23-2.24 0.54c-0.76 2.12-0.86 4.93 0.13 8.69 3.24 12.32 9.07 54.43 9.72 71.92 0.23 6.34 1.53 24.38 7.64 29.34 6.11 4.97 20.25 2.44 24.59 2.57 20.1 0.62 50.06 0.49 50.06 0.49 0 0 10.36 1.3 23.97-3.89 6.48-2.47 11.76-4.49 15.54-5.93-0.85-1.26-3.55-2.53-10.2-3.3z"/>
									<path id="&lt;Path&gt;" class="s34" d="m313.7 439.53c0 0-12.12-1.31-8.19 22.27 3.93 23.58 5.24 34.06 4.91 39.63-0.33 5.57-3.93 35.05 1.64 41.6 5.57 6.55 21.94 8.51 34.72 4.26 12.77-4.26 1.31-40.62 1.31-40.62z"/>
								</g>
							</g>
							<g id="&lt;Group&gt;">
								<g id="&lt;Group&gt;">
									<g id="&lt;Group&gt;">
										<path id="&lt;Path&gt;" class="s15" d="m446.61 586.81q0.02-0.18 0.03-0.37-0.97 0.1-1.95 0.19c-6.81 0.53-20.43 1.08-20.43 1.08 0 0 3.25 21.13 3.63 25.61 0.38 4.47 0.52 12.31 0.93 13.85 0.88 3.34 1.25 6.34 8.22 8.25 6.96 1.92 14.37 0.57 17.39-1.83 3.01-2.4-8.93-13.26-8.93-13.26 0 0-0.66-14.96 1.11-33.52z"/>
										<g id="&lt;Group&gt;">
											<path id="&lt;Path&gt;" class="s35" d="m427.12 623.6c-1.06 0.29-1.31 6.75-1.48 9.08-0.17 2.32-2.75 8.41 0.73 10.36 2.39 1.35 8.15 0.78 10.11 0.9 1.96 0.12 3.45-0.96 5.71-1.12 2.27-0.15 5.85 0.94 6.67 1.28 0.82 0.34 3.49 4.19 13.12 3.61 9.63-0.6 10.28-7.77 8.83-10.85-1.44-3.09-3.79-2.57-8.27-4.3-3.36-1.3-7.9-3.68-9.47-5.24-1.58-1.55-5.64-7.92-7.04-6.26-1.4 1.67-6.16 3.93-9.3 4.2-4.9 0.43-8.54-1.96-9.61-1.66z"/>
											<path id="&lt;Path&gt;" class="s36" d="m426.18 638.36c0 0 3.5 2.26 8.83 2.57 5.32 0.33 8-1.56 11.56-0.17 3.56 1.38 7.1 3.16 12.1 3.93 6.13 0.96 11.17-2.53 11.17-2.53"/>
											<path id="&lt;Path&gt;" class="s36" d="m448.15 629.07c0 0 1.92-3.09 3.6-2.99"/>
											<path id="&lt;Path&gt;" class="s36" d="m451.35 631.6c0 0 1.91-3.09 3.6-2.99"/>
										</g>
									</g>
									<g id="&lt;Group&gt;">
										<g id="&lt;Group&gt;">
											<g id="&lt;Group&gt;">
												<path id="&lt;Path&gt;" class="s37" d="m368.05 507.15c0 0 64.95 2.99 71.72 18.33 6.76 15.34 8.66 85.3 6.98 87.27-2.99 3.49-21.42 2.35-21.94 0-0.95-4.29-7.53-56.88-10.47-61.34-2.95-4.46-33.6 0.54-46.26 0.14-13.14-0.41-26.72-4.95-30.9-12.77-3.89-7.3-2.12-27.75-2.12-27.75z"/>
											</g>
										</g>
									</g>
								</g>
								<g id="&lt;Group&gt;">
									<g id="&lt;Group&gt;">
										<path id="&lt;Path&gt;" class="s15" d="m415.83 594.13c-0.25-0.6-18.01-4.76-18.01-4.76 0 0-4.96 20.8-6.3 25.08-1.34 4.29-4.17 11.6-4.37 13.18-0.44 3.43-1.23 6.35 4.5 10.75 5.72 4.4 13.09 5.95 16.79 4.87 3.7-1.09-3.26-15.65-3.26-15.65 0 0 10.7-33.35 10.65-33.47z"/>
										<g id="&lt;Group&gt;">
											<path id="&lt;Path&gt;" class="s38" d="m386.93 623.69c-1.1-0.13-3.77 5.75-4.8 7.84-1.04 2.09-5.72 6.75-3.24 9.88 1.71 2.15 7.25 3.8 9.02 4.65 1.78 0.85 3.56 0.41 5.72 1.12 2.15 0.71 5.06 3.07 5.69 3.7 0.62 0.62 1.65 5.2 10.79 8.29 9.14 3.09 12.45-3.31 12.27-6.71-0.17-3.41-2.54-3.81-6.03-7.1-2.63-2.48-5.93-6.4-6.8-8.43-0.87-2.04-2.23-9.47-4.15-8.45-1.93 1.01-7.19 1.3-10.2 0.37-4.69-1.45-7.17-5.03-8.27-5.16z"/>
											<path id="&lt;Path&gt;" class="s39" d="m380.49 637c0 0 2.39 3.41 7.2 5.72 4.81 2.31 7.99 1.57 10.77 4.2 2.78 2.62 5.39 5.6 9.72 8.21 5.31 3.2 11.3 1.87 11.3 1.87"/>
											<path id="&lt;Path&gt;" class="s39" d="m404.34 636.69c0 0 2.94-2.14 4.46-1.41"/>
											<path id="&lt;Path&gt;" class="s39" d="m406.34 640.24c0 0 2.94-2.14 4.46-1.41"/>
										</g>
									</g>
									<path id="&lt;Path&gt;" class="s40" d="m352.19 511.09l-33.18-1.47c0 0-5.03 19.91-2.36 27.74 2.86 8.39 15.37 14.11 28.49 14.84 11.79 0.65 39.18 2.52 49.08 5.03-2.1 11.27-4.71 51.89-5.34 55.54-0.4 2.37 16.23 10.38 20.32 8.28 1.58-0.81 14.55-47.75 16.94-55.51 2.66-8.64 3.32-19.94 1-25.93-2.33-5.98-11.94-12.31-22.61-16.29-21.96-8.19-52.34-12.23-52.34-12.23z"/>
								</g>
							</g>
							<g id="&lt;Group&gt;">
								<path id="&lt;Path&gt;" class="s41" d="m377.31 456.22q0.87-0.33 1.8-0.73-0.02-0.29-0.04-0.56c-0.41-6.82-5.61-25.08-9.91-26.74-4.53-1.76-8.28 8.6-8.6 17.66-0.1 2.83-0.04 7.75 0.24 13.42 5.59-0.12 10.89-0.95 16.51-3.05z"/>
								<path id="&lt;Path&gt;" class="s15" d="m390.94 470.87l-10.51-0.57-3.16-17.79c0 0-14.63 4.66-14.63 4.99 0 0.33 3 16.46 3.83 19.61 0.83 3.16 1.99 8.32 6.98 9.31 4.98 1 11.68-1.59 14.46-3.49 3.16-2.16 8.47-4.88 8.47-4.88z"/>
								<g id="&lt;Group&gt;">
									<path id="&lt;Path&gt;" class="s42" d="m399.04 460.76c0.83-2.4-0.02-7.1-3.32-5.41-3.3 1.69-3.62 7.04-3.62 7.04 0 0-2.85 2.23-3.5 3.48-1.88 3.61-4.43 9.88-2.36 13.17 2.08 3.29 7.38-0.55 8.58-3.29 1.2-2.75 3.4-12.59 4.22-14.99z"/>
									<path id="&lt;Path&gt;" class="s43" d="m386.47 470.71c0 0-3.76 7.5-1.74 9.61"/>
								</g>
								<g id="&lt;Group&gt;">
									<path id="&lt;Path&gt;" class="s13" d="m355.98 419.56c0 0 17.3 3.25 18.13 22.09 0.33 7.46-0.89 25.59 0.5 38.12 2.14 19.26 4.99 27.6 4.99 27.6 0 0-3.66 9.97-18.95 10.97-12.11 0.79-20.94-0.34-29.59 0.66-7.99 0.92-15.29 3.66-15.29 3.66 0 0 0.65-21.23-0.66-42.89-1.03-16.99-5.7-40.47-1.17-48.2 5.51-9.39 20.11-13.4 29.72-13.12 7.01 0.2 12.32 1.11 12.32 1.11z"/>
								</g>
								<path id="&lt;Path&gt;" class="s14" d="m316.97 454.27c0 0 11.79 10.81 22.93 17.03 11.13 6.22 26.53 1.31 26.53 1.31 0 0-6.55 19.65-18.67 21.94-12.12 2.3-30.13-23.91-30.79-40.28z"/>
							</g>
							<g id="&lt;Group&gt;">
								<path id="&lt;Path&gt;" class="s15" d="m357.02 404.81l-1.04 19.01c0 0-1.89 2.95-7.71 2.79-5.82-0.16-11.17-6.62-11.17-6.62l7-21.27z"/>
								<path id="&lt;Path&gt;" class="s15" d="m332.31 375.09c5.09-7.57 12.26-10.02 20.91-7.58 5.88 1.65 11.88 9.91 13.52 16.49 1.33 5.33 4.65 24.94-9.96 30.86-6.77 2.75-11.1 1.33-16.91-1.58-14.2-7.1-15.78-25.98-7.56-38.19z"/>
								<path id="&lt;Path&gt;" class="s43" d="m356.48 415.55c-5.47 1.73-11.12 1.06-15.11-2.26"/>
								<path id="&lt;Path&gt;" class="s11" d="m339.37 411.29c1.42 2.47 1.66 6.65-0.99 13.63-2.66 6.98-4.99 7.32-11.64 5.99-6.65-1.33-8.97-5.99-9.97-9.64-1-3.66 1.41-15.49 1.99-19.29 0.58-3.79-0.3-14.78 1.14-19.75 1.89-6.52 8.75-15.46 16.04-18.5 8.75-3.67 30.36 3.55 28.37 11.33-1.99 7.78-7.65 8.31-13.3 10.97-5.65 2.66-10.7 5.93-12.3 8.97-1.61 3.04-0.93 13.52 0.66 16.29z"/>
								<path id="&lt;Path&gt;" class="s15" d="m334.77 393.76c-3.11-0.3-4.23 2.24-4.36 3.78-0.31 3.33 2.52 8.05 5.08 8.78 2.56 0.74 4.32 1 4.32 1l0.19-7.87c0 0-2.11-5.39-5.23-5.69z"/>
								<g id="&lt;Group&gt;">
									<path id="&lt;Path&gt;" class="s11" d="m350.09 396.07c0.22 1.05-0.45 2.08-1.5 2.31-1.05 0.22-2.08-0.44-2.3-1.49-0.23-1.05 0.44-2.09 1.49-2.31 1.05-0.23 2.08 0.44 2.31 1.49z"/>
									<path id="&lt;Path&gt;" class="s11" d="m364.21 394.26c0.23 1.05-0.44 2.08-1.49 2.31-1.05 0.23-2.08-0.44-2.31-1.49-0.23-1.05 0.44-2.08 1.49-2.31 1.05-0.23 2.09 0.44 2.31 1.49z"/>
									<g id="&lt;Group&gt;">
										<path id="&lt;Path&gt;" class="s44" d="m357.32 391.01c0.5 1.39 0.64 2.72 0.85 3.94 0.1 0.59 0.22 1.18 0.32 1.14 0.37 0.42 0.81 1.02 1.22 1.67 0.39 0.67 0.72 1.52 0.69 2.45-0.05 0.92-0.47 1.79-1.05 2.37-1.17 1.14-2.61 1.45-3.96 1.5 1.15-0.68 2.27-1.49 2.78-2.42 0.27-0.44 0.26-0.92 0.13-1.32q-0.18-0.58-0.69-1.22c-0.3-0.47-0.74-0.86-1.17-1.49-0.77-1.1-0.56-1.95-0.55-2.65 0.19-1.43 0.6-2.74 1.43-3.97z"/>
									</g>
									<g id="&lt;Group&gt;">
										<g id="&lt;Group&gt;">
											<path id="&lt;Path&gt;" class="s11" d="m343.81 391.79c-0.02 0.01-0.1 0.06-0.07 0.04q0.11-0.03 0.22-0.06-0.01 0-0.03 0c-0.69 0.02-0.58 1.06 0.13 0.96q0.36-0.06 0.68-0.24c0.04-0.02 0.07-0.03 0.01-0.01q0.06-0.02 0.12-0.04 0.17-0.06 0.34-0.11c0.52-0.14 1.05-0.2 1.57-0.28 0.52-0.07 1.03-0.2 1.55-0.24q0.38-0.02 0.76 0.01c0.13 0.01 0.3 0.02 0.43-0.02 0.17-0.05 0.23-0.17 0.34-0.27 0.07-0.06 0.09-0.17 0.07-0.25-0.04-0.12-0.05-0.27-0.17-0.39-0.11-0.11-0.29-0.17-0.43-0.2-0.28-0.07-0.58-0.07-0.86-0.06-0.62 0.02-1.22 0.17-1.82 0.28-0.54 0.1-1.08 0.17-1.61 0.32-0.25 0.07-0.51 0.17-0.7 0.26-0.19 0.08-0.34 0.23-0.54 0.3q0.3 0.17 0.6 0.34 0-0.01 0-0.03 0 0.12 0 0.24c-0.02 0.05 0.03-0.06 0.03-0.07 0.21-0.42-0.27-0.76-0.62-0.48z"/>
										</g>
									</g>
									<g id="&lt;Group&gt;">
										<g id="&lt;Group&gt;">
											<path id="&lt;Path&gt;" class="s11" d="m359.75 389.5q-0.06 0.05-0.11 0.09 0.26-0.03 0.53-0.07c-0.19-0.12-0.46-0.07-0.61 0.09-0.28 0.29-0.1 0.87 0.34 0.84q0.26-0.01 0.5-0.1 0.13-0.05 0.24-0.12c0.06-0.03-0.03 0.01-0.03 0.02q0.06-0.02 0.12-0.04c0.3-0.1 0.58-0.13 0.89-0.15q0.5-0.03 1-0.07c0.38-0.04 0.75-0.09 1.13-0.05 0.36 0.04 0.91 0.25 1.13-0.24 0.24-0.54-0.42-0.82-0.83-0.89q-0.59-0.09-1.19-0.03-0.18 0.02-0.36 0.05c-0.1 0.02 0.07-0.01-0.03 0.01q-0.05 0-0.1 0.01-0.27 0.03-0.53 0.05c-0.41 0.04-0.82 0.08-1.21 0.19q-0.26 0.07-0.5 0.19c-0.12 0.06-0.23 0.16-0.36 0.21q0.28 0.36 0.56 0.72c0.1-0.19 0.1-0.47-0.07-0.62q0.05 0.22 0.11 0.43 0.02-0.07 0.05-0.13c0.06-0.17-0.04-0.37-0.18-0.45-0.17-0.1-0.35-0.05-0.49 0.06z"/>
										</g>
									</g>
								</g>
								<path id="&lt;Path&gt;" class="s2" d="m349.18 405.76c1.73-1.09 3.86 1.1 5.91 1.16 2.05 0.07 5.05-2.19 5.05-2.19 0 0-0.46 5.81-5.18 6.96-4.72 1.15-7.67-4.74-5.78-5.93z"/>
							</g>
							<g id="&lt;Group&gt;">
								<g id="&lt;Group&gt;">
									<path id="&lt;Path&gt;" class="s15" d="m324.3 461.78c0 0 2.57-6.58 7.69-9.78 5.13-3.2 8.46-4.23 8.46-4.23l13.08 13.89 13.58-12.01 7.69 7.18c0 0-6.78 21.52-18.74 27-8.66 3.97-16.95-4.29-20.45-7.48-3.5-3.19-11.31-14.57-11.31-14.57z"/>
									<g id="&lt;Group&gt;">
										<path id="&lt;Path&gt;" class="s15" d="m368.36 456.31c-3.6-2.54-4.1-9.88-3.92-11.35 0.19-1.48 1.21-4.01 2.24-7.07 0.92-2.75 1.87-4.33 1.97-7.35 0.07-2.19 2.36-2.77 3.33-1.74 1.6 1.69 1.27 5.82 1.27 5.82 0 0 3.7-4.27 7.69-6.7 1.7-1.05 3.28-0.9 4.24-0.31 1.07 0.65 1.4 1.84 0.37 2.59 0 0 2.19-1.22 3.22 0.2 1.43 1.97-0.9 4.4-0.9 4.4 0 0 2.34-0.79 3.24 0.96 0.84 1.64-2.57 5.58-2.57 5.58 0 0 3.25-2.56 3.15 1.17-0.04 1.67-5.59 6.92-8.86 10.58-1.89 2.09-2.55 3.15-3.6 3.75-2.9 1.64-7.27 2-10.87-0.53z"/>
										<path id="&lt;Path&gt;" class="s43" d="m373.46 434.15c0 0-2.75 3.76-4.02 6.55"/>
										<path id="&lt;Path&gt;" class="s43" d="m385.47 429.94c0 0-8.77 7.29-10.65 11.04"/>
										<path id="&lt;Path&gt;" class="s43" d="m387.87 434.8c0 0-7.56 5.34-9.76 9.36"/>
										<path id="&lt;Path&gt;" class="s43" d="m388.54 441.34c0 0-5.82 5.43-7.16 6.75"/>
									</g>
								</g>
							</g>
							<g id="&lt;Group&gt;">
								<g id="&lt;Group&gt;">
									<path id="&lt;Path&gt;" class="s45" d="m392.96 487.32c0 0-7.3 0.54-9.26 1.22-3.79 1.32-9.69 4.27-9.69 4.27 0 0 10.47-26.43 14.96-34.41 4.49-7.98 15.97-23.72 15.97-23.72l18.43 6.27c0 0-11.47 10.97-17.95 19.45-6.48 8.47-12.46 26.92-12.46 26.92z"/>
								</g>
								<g id="&lt;Group&gt;">
									<path id="&lt;Path&gt;" class="s15" d="m391.96 473.44c0 0-1.01-1.3-0.75-2.49 0.44-2.02 2.17-2.15 3.17-2.5-1.39-1.76 0.05-4.98 2.43-5.54-0.33-1.91 1.2-4.35 3.37-4.54 0 0 3.13 0.94 4.15 1.46 1.02 0.52 1.74 2.55 0.92 3.82-0.83 1.27-1.84 1.13-1.84 1.13 0 0 0.88 1.96-0.34 3.79-0.8 1.21-2.31 0.88-2.31 0.88 0 0 1.32 0.42 0.93 2.23-0.55 2.56-2.47 2.32-2.82 2.48 0.48 0.81 0.47 1.89-0.61 3.27-0.78 1-1.98 1.3-3.11 1.31-1.12 0.01-0.9-0.09-2.3-0.4-1.4-0.31-3.94 0.08-3.9-1.82 0.04-1.91 3.01-3.08 3.01-3.08z"/>
									<g id="&lt;Group&gt;">
										<path id="&lt;Path&gt;" class="s43" d="m391.9 473.89c0 0 4.69 1.23 7.16 0.56"/>
										<path id="&lt;Path&gt;" class="s43" d="m394.06 468.64c0 0 4.32 1.33 7.15 1"/>
										<path id="&lt;Path&gt;" class="s43" d="m396.64 462.86c0 0 4.38 2.24 6.88 2.2"/>
									</g>
								</g>
							</g>
						</g>
					</g>
					<g id="&lt;Group&gt;">
						<path id="&lt;Path&gt;" class="s11" d="m757.12 538.05c0.29 10.22 1.07 35.28 1.85 43.82 0.98 10.84 6.4 37.43 7.88 42.84 1.3 4.78 2.46 7.88-2.47 7.39-4.92-0.49-5.91-1.48-8.86-9.85-2.96-8.37-7.13-30.07-8.86-41.36-1.54-9.98-2.48-33.12-2.81-42.84z"/>
						<g id="&lt;Group&gt;">
							<g id="&lt;Group&gt;">
								<path id="&lt;Path&gt;" class="s35" d="m733.1 599.94c0 0 0.33 2.94-0.16 6.36-0.39 2.82-1.69 5.87-3.48 9.19-1.65 3.06-4.37 5-7.01 9.63-2.03 3.57 0.23 7.51 3.66 8.73 6.37 2.27 16.73-4.44 19.94-10.56 3.11-5.94 7.19-9.09 10.59-11.01 3.41-1.92 5.87-7.42 2.26-11.63-1.43-1.67-3.84-3.86-6.47-6.32-3.12-2.91-5.39-5.5-5.39-5.5z"/>
								<path id="&lt;Path&gt;" class="s15" d="m737.97 615.8c5.04-4.69 7.7-10.69 11.35-14.78 2.01-2.25 3.44-4.2 3.25-6.56q-0.07-0.07-0.14-0.13c-3.12-2.91-5.39-5.5-5.39-5.5l-13.94 11.11c0 0 0.33 2.94-0.16 6.36-0.39 2.82-1.69 5.87-3.48 9.19q-0.47 0.87-1.04 1.65c1.24 2.04 5.34 2.58 9.55-1.34z"/>
							</g>
							<g id="&lt;Group&gt;">
								<path id="&lt;Path&gt;" class="s37" d="m701.66 516.39c-6.43 0.07-10.2 2.06-11.23 13.24-1.02 11.18 22.25 50.37 25.6 57.87 3.35 7.5 6.92 15.79 6.92 15.79 0 0 8.8 0.25 15.53-3.59 6.73-3.84 13.35-11.41 13.35-11.41 0 0-17.73-35.58-21.96-42.75-4.23-7.16-13.29-21.05-13.29-21.05 0 0-8.49-8.18-14.92-8.1z"/>
							</g>
						</g>
						<g id="&lt;Group&gt;">
							<g id="&lt;Group&gt;">
								<path id="&lt;Path&gt;" class="s38" d="m701.08 612.81c0 0-0.3 2.95-1.48 6.2-0.97 2.67-2.88 5.38-5.31 8.26-2.25 2.66-5.32 3.99-8.86 7.97-2.72 3.07-1.33 7.39 1.77 9.3 5.76 3.54 17.29-0.88 21.7-6.2 4.28-5.16 8.91-7.4 12.65-8.57 3.73-1.17 7.27-6.04 4.62-10.91-1.06-1.93-2.96-4.58-5.02-7.53-2.45-3.49-4.13-6.49-4.13-6.49z"/>
								<path id="&lt;Path&gt;" class="s15" d="m702.55 629.34c5.91-3.54 9.74-8.86 14.17-12.1 2.43-1.79 4.23-3.4 4.54-5.75q-0.06-0.08-0.11-0.16c-2.45-3.49-4.13-6.49-4.13-6.49l-15.94 7.97c0 0-0.3 2.95-1.48 6.2-0.97 2.67-2.88 5.38-5.31 8.26q-0.64 0.75-1.37 1.4c0.8 2.25 4.7 3.63 9.63 0.67z"/>
							</g>
							<path id="&lt;Path&gt;" class="s40" d="m687.65 524.56c-6.31-1.26-13.95-1.11-17.27 9.61-3.32 10.73 14.85 54.9 16.57 62.93 1.73 8.04 3.5 16.89 3.5 16.89 0 0 8.56 2.07 15.94-0.3 7.38-2.36 15.42-8.39 15.42-8.39 0 0-9.96-38.48-12.61-46.37-2.66-7.89-8.63-23.35-8.63-23.35 0 0-6.62-9.76-12.92-11.02z"/>
						</g>
						<path id="&lt;Path&gt;" class="s12" d="m807.23 597.06c0.98 10.83 6.39 37.42 7.87 42.84 1.3 4.77 2.46 7.88-2.46 7.39-4.92-0.5-5.91-1.48-8.86-9.85-2.96-8.37-7.13-30.08-8.87-41.36-1.97-12.81-2.95-47.27-2.95-47.27h13.3c0 0 0.98 37.42 1.97 48.25z"/>
						<path id="&lt;Path&gt;" class="s12" d="m717.75 604.64c0.99-10.83 1.97-48.26 1.97-48.26h13.3c0 0-0.99 34.47-2.96 47.27-1.74 11.29-5.91 32.99-8.86 41.37-2.96 8.37-3.94 9.35-8.86 9.84-4.93 0.5-3.77-2.61-2.47-7.38 1.48-5.42 6.9-32.01 7.88-42.84z"/>
						<path id="&lt;Path&gt;" class="s11" d="m681.8 586.42c0.78-8.54 1.56-33.6 1.85-43.82h13.27c-0.33 9.72-1.27 32.86-2.81 42.84-1.73 11.28-5.9 32.99-8.86 41.36-2.95 8.37-3.94 9.35-8.86 9.84-4.93 0.5-3.77-2.61-2.46-7.38 1.47-5.42 6.89-32.01 7.87-42.84z"/>
						<path id="&lt;Path&gt;" class="s13" d="m802.98 557.78c-4.68 3.26-72.9 1.28-72.9 1.28 0 0-11.16 0-24.95-5.25-13.79-5.26-22.32-8.54-22.32-8.54 0 0-8.54-5.25 8.53-7.22 17.07-1.97 74.85 0.66 74.85 0.66 0 0 17.08 1.89 27.69 6.94 10.61 5.05 13.77 8.86 9.1 12.13z"/>
						<path id="&lt;Path&gt;" class="s34" d="m700.57 535.58l-17.47 3.72c0 0-3.54 5.05 21.72 6.57 25.27 1.51 37.4 6.06 43.46 5.55 6.06-0.5 10.61-11.11 10.61-15.66 0-4.55-12.63-5.05-12.63-5.05z"/>
						<path id="&lt;Path&gt;" class="s40" d="m725.13 507.25c0 0-52.09 7.44-53.42 25.15-1 13.32 7.98 9.21 18.59 8.2 10.61-1.01 32.24 1.15 44.34 3.75 9.09 1.95 32.32 0.76 33.98-10.6 1.66-11.36-1.66-22.71-6.31-26.5-4.64-3.78-37.18 0-37.18 0z"/>
						<g id="&lt;Group&gt;">
							<path id="&lt;Path&gt;" class="s46" d="m790.8 513.62c0 0-1.82-25.87-1.77-29.86 0.11-8.24 2.56-28.63 2.22-45.02-0.47-22.3-9.2-27.2-19.04-30.71-9.84-3.52-22.85-0.78-29.49 0.9-3.32 0.84-7.58 3.54-12.13 8.59-4.54 5.05-8.08 15.16-8.08 15.16 0 0 6.57 25.77 4.84 43.3-1 10.19-4 30.64-4 30.64 0 0 10.36 10.61 27.62 11.45 17.27 0.85 39.83-4.45 39.83-4.45z"/>
							<path id="&lt;Path&gt;" class="s47" d="m745.83 432.07c0 0 1.99 1.66 1 14.27-1 12.61-6.64 17.59-7.97 26.22-1.33 8.63-5.78 20.22-8.63 19.25-4.74-1.62-2.24-29.62-2.65-35.85-0.67-9.95 18.25-23.89 18.25-23.89z"/>
							<g id="&lt;Group&gt;">
								<path id="&lt;Path&gt;" class="s15" d="m744.15 391.9l-1.43 16.52 20.17-2.18-3.49-15z"/>
								<g id="&lt;Group&gt;">
									<path id="&lt;Path&gt;" class="s15" d="m729.95 377.69c0.73-1.73 1.02-8.21 1.52-10.65 3.14-15.5 19.67-17.15 29.15-12.71 9.49 4.44 12.11 24.6 8.46 30.74-3.65 6.15-11.73 9.5-16 11.23-4.28 1.72-14.53 5.39-18.95 2.02-4.41-3.38-3.95-9.79-4.46-10.29-1.14-1.13-3.42-2.48-3.08-4.41 1.5-2.49 2.64-4.19 3.36-5.93z"/>
									<g id="&lt;Group&gt;">
										<path id="&lt;Path&gt;" class="s11" d="m735.4 376.51c-0.41-0.94-1.48-1.32-2.36-0.83-0.88 0.48-1.27 1.67-0.86 2.6 0.41 0.93 1.49 1.31 2.36 0.83 0.88-0.49 1.27-1.67 0.86-2.6z"/>
										<g id="&lt;Group&gt;">
											<g id="&lt;Group&gt;">
												<path id="&lt;Path&gt;" class="s11" d="m737.33 374.12c0.24 0.03 0.43-0.21 0.37-0.44q-0.04-0.11-0.12-0.2-0.02-0.02-0.05-0.05c-0.15-0.09 0.13 0.4 0.04 0.08-0.06-0.23-0.35-0.4-0.55-0.5q-0.4-0.2-0.81-0.35c-1.31-0.49-2.9-0.71-4.25-0.31-0.71 0.21-0.4 1.33 0.3 1.1 1.03-0.32 2.15-0.19 3.2 0.09q0.64 0.17 1.27 0.38c0.16 0.05 0.39 0.14 0.55 0.09 0.35-0.09-0.34-0.03-0.17-0.02q0.02 0 0.05 0.02c0.06 0.05-0.04-0.03-0.05-0.05-0.1-0.16 0.33-0.51 0.13-0.47-0.38 0.08-0.24 0.59 0.09 0.63z"/>
											</g>
										</g>
									</g>
									<path id="&lt;Path&gt;" class="s11" d="m782.21 403.83c-2.47-4.72-2.45-12.44-1.72-22.68 0.49-6.94-1.18-11.99-2.31-14.53-1.33-9.66-9.1-13.73-13.66-15.74-4.74-2.1-14.63-4.77-26.68 2.34-5.07 2.99-7.61 8.57-6.22 12.66 1.39 4.09 6.03 5.14 9.66 9.65 3.63 4.52 0.63 7.86 4.94 11.79 0.68 0.62-0.61 5.31-0.97 8.98-0.37 3.67-1.05 6.36 0.03 10.11 1.09 3.76 3.27 8.2 2.54 11.27-0.72 3.07-4.02 14.4 4.25 19.55 11.37 7.07 19.2-1.4 24.85-2.41 5.64-1.01 12.68-3.9 13.76-10.44 1.07-6.55-6-15.83-8.47-20.55z"/>
									<path id="&lt;Path&gt;" class="s15" d="m742.22 381.39c0 0 3.7-8.35 7.03-2.15 3.32 6.19-4.67 10.58-4.67 10.58z"/>
									<path id="&lt;Path&gt;" class="s2" d="m730.89 390.44c0 0 2.55-0.24 4.38-1.01 2.08-0.88 3.5-2.25 4.04-1.35 1.01 1.69 1.01 6.4-4.72 6.4-3.72 0-3.7-4.04-3.7-4.04z"/>
								</g>
							</g>
						</g>
						<path id="&lt;Path&gt;" class="s14" d="m803.99 557.78c8.53-1.97 8.16-15.14 8.82-32.86 0.65-17.73 6.56-60.4 9.84-72.88 3.29-12.47-5.2-14.58-10.5-15.76-4.83-1.07-31.41 0.73-35.95 1.24-4.55 0.5-13 2.51-15.67 5.05-3.49 3.31-3.03 44.46-3.03 44.46l-5.05 62.66c0 0 0 9.1 17.68 8.59 17.69-0.5 33.86-0.5 33.86-0.5z"/>
						<g id="&lt;Group&gt;">
							<g id="&lt;Group&gt;">
								<path id="&lt;Path&gt;" class="s48" d="m743.35 551.32c0.15 0 0.15-0.23 0-0.23-0.14 0-0.14 0.23 0 0.23z"/>
							</g>
						</g>
						<path id="&lt;Path&gt;" class="s13" d="m750.98 553.78c2.36 0.16 8.42 3.83 10.77 4.04l2.83-70.28c0 0-0.47-41.15 3.03-44.47 2.67-2.53 11.11-4.54 15.66-5.05 3.49-0.39 19.99-1.54 29.64-1.56q-0.39-0.09-0.76-0.18c-4.83-1.07-31.41 0.73-35.95 1.24-4.55 0.5-13 2.51-15.67 5.05-3.49 3.31-3.03 44.46-3.03 44.46z"/>
						<g id="&lt;Group&gt;">
							<g id="&lt;Group&gt;">
								<path id="&lt;Path&gt;" class="s15" d="m739.84 422.53c-5.41-3.11-11.35-1.94-14.22 2.81-2.88 4.74-8.76 17.51-8.76 17.51l-19.9-15.2c0 0-5.6 3.13-7.59 6.73-1.01 1.8 4.89 10.61 11.14 19.26 6.23 8.64 12.84 15.12 19.19 15.77 6.35 0.66 23.72-21 26.71-26.33 3.68-6.56-1.16-17.43-6.57-20.55z"/>
								<path id="&lt;Path&gt;" class="s15" d="m688.38 414.09c1.05 0.12-1.61-7.61 1.72-9.01 3.34-1.39 3.84 7.04 4.54 9.01 0.41 1.16 2.51 6.43 3.23 9.17 0.71 2.75 1.14 6.36-2.7 9.69-3.84 3.34-5.77 3.69-10.72 1.61-2.65-1.12-6.97-2.59-10.38-4.74-3.44-2.17-5.53-4.04-6.69-5.88-0.97-1.54-0.08-3.56 1.6-3.18 1.69 0.39 6.8 4.02 7.16 3.35 0.21-0.38-3.35-2.62-6.09-4.98-2.07-1.8-3.16-4.42-3.43-5.18-0.63-1.77 0.55-4.37 2.76-3.4 0.66 0.28 1.88 2.9 3.92 4.72 2.38 2.11 5.3 4.1 5.3 4.1 0 0-2.77-2.91-5.15-6.35-1.73-2.5-2.74-5.55-3.12-6.58-0.91-2.45 1.36-3.99 3.25-2.76 0.92 0.6 2.17 3.97 3.96 6.6 1.85 2.72 4.24 4.71 4.7 4.57 0.91-0.27-8.23-12.2-5.51-14.19 0.91-0.67 2.15-0.75 3.61 0.99 2.87 3.42 6.99 12.32 8.04 12.44z"/>
								<path id="&lt;Path&gt;" class="s32" d="m721.02 466.92c-12.94 2.48-29.62-33.11-29.62-33.11 0 0-8.46-2.24-14.69-3.98-4.49-1.26-8.06-5.23-9.71-7.35-0.02 0.48 0.08 0.99 0.38 1.46 1.16 1.84 3.25 3.71 6.69 5.88 3.41 2.15 7.73 3.62 10.38 4.74 2.07 0.87 3.61 1.31 4.98 1.29 0.93 3.28 5.88 10.58 11.08 17.79 6.23 8.64 12.84 15.12 19.19 15.77 6.35 0.66 23.72-21 26.71-26.33q0.52-0.97 0.82-2.05c-5.55 8.51-16.85 24.09-26.21 25.89z"/>
							</g>
						</g>
					</g>
					<g id="&lt;Group&gt;">
						<g id="&lt;Group&gt;">
							<path id="&lt;Path&gt;" class="s49" d="m306.65 554.31c0 0-16.53 29.66-17.08 49.23-0.55 19.56 2.54 47.3 2.54 47.3 0 0 9.55-33.34 13.99-49.76 4.45-16.41 0.55-46.77 0.55-46.77z"/>
							<g id="&lt;Group&gt;">
								<path id="&lt;Path&gt;" class="s50" d="m305.24 562.84c-0.9 6.99-1.94 13.95-2.97 20.91l-3.21 20.87-3.31 20.85q-0.84 5.21-1.6 10.43c-0.55 3.48-0.99 6.96-1.45 10.46 0.21-7.05 0.98-14.07 1.83-21.06 0.85-7 1.91-13.96 2.94-20.93 1.17-6.94 2.29-13.9 3.58-20.82 1.3-6.92 2.64-13.84 4.19-20.71z"/>
							</g>
						</g>
						<g id="&lt;Group&gt;">
							<path id="&lt;Path&gt;" class="s50" d="m270.64 603.26c6.78 1.72 14.06 14.82 15.3 22.16 1.25 7.35-2.12 26.35-2.12 26.35 0 0-6.25-13.68-10.85-24.28-4.59-10.6-17.71-20.71-17.71-20.71 0 0 6.65-5.76 15.38-3.52z"/>
							<g id="&lt;Group&gt;">
								<path id="&lt;Path&gt;" class="s49" d="m263.16 605.14c3.22 2.23 6.05 4.99 8.62 7.96 1.29 1.49 2.48 3.02 3.57 4.73 1.03 1.72 1.87 3.51 2.65 5.32 1.47 3.66 2.66 7.41 3.5 11.24 0.82 3.82 1.56 7.71 1.43 11.63q-0.39-2.9-1.13-5.71-0.66-2.83-1.5-5.61c-1.1-3.7-2.32-7.38-3.78-10.93-0.73-1.77-1.54-3.51-2.47-5.16-0.92-1.62-2.11-3.18-3.23-4.74q-3.48-4.63-7.66-8.73z"/>
							</g>
							<path id="&lt;Path&gt;" class="s49" d="m260.52 597.48c0 0-8.57-0.41-13.39 7.39-4.83 7.78-6.03 18.15-6.03 18.15 0 0 12.06-12.41 19.58-14.43 7.52-2.02 13.46-3.58 13.46-3.58 0 0-3.28-2.4-7.21-4.19-2.6-1.19-4.03-3.48-6.41-3.34z"/>
							<g id="&lt;Group&gt;">
								<path id="&lt;Path&gt;" class="s50" d="m245.27 615.11q1.27-3.1 3.17-5.86c1.26-1.85 2.7-3.59 4.52-5.05 0.88-0.7 2.02-1.35 3.1-1.68q1.61-0.53 3.25-0.87 3.26-0.7 6.6-0.84l-6.28 2.05c-1.03 0.36-2.06 0.68-3.05 1.09-1.02 0.36-1.8 0.84-2.63 1.51-1.65 1.28-3.09 2.91-4.51 4.55q-2.1 2.49-4.17 5.1z"/>
							</g>
						</g>
						<g id="&lt;Group&gt;">
							<path id="&lt;Path&gt;" class="s50" d="m324.35 607.08c0 0-13.28 11.52-18.13 26.63-4.87 15.11-11.45 34.51-11.45 34.51 0 0-2.78-30.95-1.34-42.07 1.45-11.12 9.04-29.25 15.81-29.72 8.7-0.59 15.11 10.65 15.11 10.65z"/>
							<g id="&lt;Group&gt;">
								<path id="&lt;Path&gt;" class="s49" d="m316.58 601.88c-1.78 1.91-3.38 3.96-4.85 6.1q-2.25 3.18-4.12 6.58c-2.62 4.46-4.2 9.37-5.56 14.38-1.44 4.99-2.56 10.07-3.63 15.16q-0.81 3.82-1.46 7.67-0.72 3.83-1.15 7.73c-0.07-5.24 0.61-10.45 1.39-15.62 0.83-5.17 1.96-10.29 3.3-15.37 1.49-4.99 3.13-10.14 6.05-14.57 2.79-4.45 6.02-8.68 10.03-12.06z"/>
							</g>
							<path id="&lt;Path&gt;" class="s49" d="m334.83 608.27c-5.72-17.03-15.4-17.55-15.4-17.55-2.36-1-3.84 2.12-6.45 3.12-3.94 1.51-7.26 4.18-7.26 4.18 0 0 5.83 4.43 13.22 10.1 7.39 5.67 15.16 22.43 15.16 22.43 0 0 5.72-7.43 0.73-22.28z"/>
							<g id="&lt;Group&gt;">
								<path id="&lt;Path&gt;" class="s50" d="m334.67 621.98l-4.01-7.94c-1.36-2.62-2.7-5.25-4.22-7.73-1.44-2.58-3.32-4.6-5.58-6.53-2.21-1.93-4.55-3.74-6.87-5.62 2.68 1.32 5.22 2.89 7.64 4.66 1.22 0.88 2.38 1.82 3.46 2.96 1.08 1.15 1.92 2.41 2.72 3.69q2.31 3.9 3.97 8.05c1.12 2.77 2.14 5.57 2.89 8.46z"/>
							</g>
						</g>
						<g id="&lt;Group&gt;">
							<path id="&lt;Path&gt;" class="s49" d="m246.95 556.15c-0.14 0.24 8.06 1.21 17.55 7.54 9.44 5.96 20.17 17.28 24.11 29.87 10.37 25.11 1.47 63.18 0.37 62.41-0.1 0.18 0.66-11.43-2.13-24-2.41-12.71-8.36-26.38-13.07-33.74-4.35-7.67-9.71-18.8-15.48-27.34-5.53-8.65-11.47-14.71-11.35-14.74z"/>
							<g id="&lt;Group&gt;">
								<path id="&lt;Path&gt;" class="s50" d="m254.42 561.47c3.2 2.48 6.49 5.17 9.44 8.09q4.44 4.44 8.2 9.48c2.52 3.35 4.69 6.96 6.59 10.7 1.93 3.66 3.84 7.43 5.32 11.34 2.92 7.85 5.02 16 6.15 24.28 1.05 8.24 1.59 16.77-0.43 24.89 0.71-4.1 0.8-8.26 0.58-12.39-0.2-4.13-0.69-8.24-1.37-12.32-1.37-8.15-3.44-16.19-6.43-23.88-1.42-3.88-3.22-7.56-5.13-11.27-1.8-3.71-3.96-7.22-6.28-10.63-4.66-6.8-10.49-12.85-16.64-18.29z"/>
							</g>
						</g>
						<g id="&lt;Group&gt;">
							<g id="&lt;Group&gt;">
								<path id="&lt;Path&gt;" class="s51" d="m310.88 682.97l6.22-46.28v-9.85h-52.18v9.85l6.22 46.28z"/>
							</g>
							<g id="&lt;Group&gt;">
								<path id="&lt;Path&gt;" class="s52" d="m287.95 667.46c-9.96-4.99-16.78-15.39-21-24.13l5.19 38.64h39.74l1.24-9.22c-6.76 0.28-15.81-0.62-25.17-5.29z"/>
							</g>
						</g>
					</g>
					<g id="&lt;Group&gt;">
						<g id="&lt;Group&gt;">
							<g id="&lt;Group&gt;">
								<g id="&lt;Group&gt;">
									<path id="&lt;Path&gt;" class="s53" d="m511.32 662.26c0 0-0.47 4.41-4.04 7.57-2.38 2.11-4.55 1.02-8.59 3.54-6.37 3.98-6.06 15.16 5.05 15.16 11.12 0 23.75-2.02 29.82-5.05 6.06-3.03 2.02-20.72 2.02-20.72z"/>
									<path id="&lt;Path&gt;" class="s12" d="m530.02 567.76c0 0-32.34-2.02-31.67 20.89 0.8 26.95 10.11 75.79 10.11 75.79 0 0 8.09 2.03 14.82 2.7 6.74 0.67 13.48-2.02 13.48-2.02 0 0 1.68-63 3.7-67.71 2.02-4.72 30.32-20.21 30.32-20.21z"/>
								</g>
								<g id="&lt;Group&gt;">
									<path id="&lt;Path&gt;" class="s53" d="m561.35 662.26c0 0-0.48 4.41-4.04 7.57-2.38 2.11-4.55 1.02-8.59 3.54-6.37 3.98-6.07 15.16 5.05 15.16 11.12 0 23.75-2.02 29.81-5.05 6.06-3.03 2.02-20.72 2.02-20.72z"/>
									<path id="&lt;Path&gt;" class="s12" d="m569.66 567.09c0 0-16.4 12.13-16.4 29.64 0 17.52 5.8 67.71 5.8 67.71 0 0 8.2 2.03 15.03 2.7 6.83 0.67 13.67-2.02 13.67-2.02 0 0 1.72-63 3.77-67.71 2.05-4.72 9.57-25.6 9.57-25.6z"/>
								</g>
							</g>
							<g id="&lt;Group&gt;">
								<g id="&lt;Group&gt;">
									<path id="&lt;Path&gt;" class="s15" d="m569.38 444.24l-2.98 18.92c0 0 4.72 4.2 13.23 3.53 8.51-0.67 12.05-3.56 12.05-3.56l-1.18-21.75z"/>
									<g id="&lt;Group&gt;">
										<path id="&lt;Path&gt;" class="s15" d="m562.41 425.29c1.31-1.61 3.66-8.38 4.95-10.81 8.2-15.44 26.22-11.99 34.88-4.3 8.65 7.68 4.51 28.83-1.29 34.19-5.79 5.37-16.78 8.05-21.86 8.53-5.07 0.49-11.53 0.54-18.72-3.51-3.76-2.13-1.13-12.54-1.51-13.24-0.85-1.55-2.84-3.7-1.88-5.64 2.38-2.16 4.11-3.6 5.43-5.22z"/>
										<g id="&lt;Group&gt;">
											<path id="&lt;Path&gt;" class="s11" d="m578.58 403c-2.37-0.55 0.5-2.4-2.84-3.2-1.67-0.39-5.86 4.74-5.86 4.74 0 0-1.97-3.3-4.44-0.38-2.47 2.93 1.78 8.74 3.2 10.06 1.47 1.36 3.49 1.89 4.49 2.01 1.99 0.25 2.9 4.78 2.9 4.78 0 0 0.79 3.19 0.46 6.6-0.14 1.42-1.58 4.24-1.54 5.4 0.06 1.64 1.87 0.99 3.91 2.49 2.03 1.51 2.06 1.26 3.34 3.57 1.21 2.19-0.18 6.97 1.13 8.08 1.3 1.11 4.78 0.03 4.78 0.03 0 0-0.06 3.52 1.38 3.93 1.44 0.42 4.96-1.75 6.9-3.41 1.94-1.66 6.74-4.51 8.87-6.56 2.13-2.06 5.1-7.15 6.29-12.53 1.19-5.37-2.66-10.65-2.66-10.65 0 0 1.52-4.13-3.07-9.39-4.43-5.08-7.63-6.12-15.07-6.79-3.5-0.32-9.8 1.76-12.17 1.22z"/>
										</g>
										<path id="&lt;Path&gt;" class="s15" d="m577.48 432.93c1.47-2.28 7.58-6.33 8.93-0.53 1.25 5.36-4.64 9.81-8.81 8.33-4.18-1.49-1.6-5.52-0.12-7.8z"/>
										<g id="&lt;Group&gt;">
											<g id="&lt;Group&gt;">
												<g id="&lt;Group&gt;">
													<path id="&lt;Path&gt;" class="s11" d="m571.35 423.79c0.2 0.08 0.42-0.05 0.48-0.25 0.04-0.16-0.03-0.33-0.1-0.47q0.02 0.14 0.04 0.28c0.08-0.44-0.33-0.84-0.6-1.12q-0.6-0.61-1.32-1.06c-1.14-0.71-2.47-1.09-3.81-0.83-0.3 0.06-0.47 0.42-0.4 0.7 0.09 0.32 0.41 0.47 0.71 0.4 1.16-0.24 2.37 0.24 3.37 0.93 0.42 0.29 0.69 0.53 1.08 0.87 0.15 0.14 0.37 0.39 0.59 0.37q-0.3-0.18-0.2-0.07 0.03 0.05-0.02-0.02 0.02 0.02 0.03 0.04c0 0.03-0.02-0.09-0.02-0.1q0.06-0.29 0.28-0.3-0.01 0-0.02 0c-0.16-0.02-0.3 0.13-0.31 0.28-0.03 0.17 0.08 0.29 0.22 0.35z"/>
												</g>
											</g>
											<path id="&lt;Path&gt;" class="s11" d="m568.7 426.8c-0.35 1.18-1.46 1.88-2.49 1.58-1.03-0.31-1.58-1.51-1.23-2.68 0.35-1.17 1.46-1.88 2.49-1.58 1.03 0.31 1.58 1.51 1.23 2.68z"/>
										</g>
										<path id="&lt;Path&gt;" class="s30" d="m559.82 439.88c0 0 2.16 4.02 7.68 1.91"/>
									</g>
								</g>
								<path id="&lt;Path&gt;" class="s54" d="m580.47 461.54c-7.83-0.44-14.81-0.89-19.33-0.22-6.1 0.9-12.34 2.57-18.03 7.89-5.68 5.31-4.2 15.89-4.74 27.47-0.54 11.58-6.61 30.02-7.67 41.59-1.06 11.58-7.69 33-4.89 36.51 2.8 3.51 34.23 11.98 55.16 11.35 20.93-0.62 26.53-2.35 28.52-7.03 1.99-4.68 0.64-34.88 2.48-44.55 1.85-9.67 4.3-34.34 5.61-47.08 2.03-19.75-16.76-26.38-22.5-26.9-3.16-0.29-5.21 1.5-14.61 0.97z"/>
								<path id="&lt;Path&gt;" class="s54" d="m562.51 462.93c-6.28-1.74-19.52 1.42-23.73 11.18-4.21 9.77-9.05 25.45-10.98 30.62-1.93 5.16-11.12 13.7-13 23.72-1.09 5.79-1.98 10.98 5.37 15.53 3.07 1.9 7.41 1.61 13.52 0.75 8.52-1.2 23.33-26.98 23.33-26.98 0 0 6.55-14.57 8.85-27.83 2.3-13.25 1.84-25.54-3.36-26.99z"/>
								<path id="&lt;Path&gt;" class="s55" d="m553.09 482.93c-4.28 0.64-8.77 2.95-12.91 7.61-4.15 4.65-7.52 14.62-8.78 19.62-2.51 9.92-0.27 19.18-7.15 24.19-3.81 2.77-7.26 4.27-9.68 3.24 0.72 2.25 2.36 4.38 5.6 6.39 3.07 1.9 7.41 1.61 13.52 0.75 8.52-1.2 23.33-26.98 23.33-26.98 0 0 6.55-14.57 8.85-27.83 0.53-3.07-8.49-7.64-12.78-6.99z"/>
								<path id="&lt;Path&gt;" class="s56" d="m532.68 545.12c0 0 9.11-4.02 16.85-14.47 6.39-8.62 15.02-31.63 15.02-31.63"/>
							</g>
						</g>
						<g id="&lt;Group&gt;">
							<g id="&lt;Group&gt;">
								<path id="&lt;Path&gt;" class="s11" d="m593 648.77v-49.34h-13.08c-0.02 8.34-0.05 41.38 0.26 61.78 0.39 25.51 7.79 28.13 11.13 28.78 3.34 0.66 6.12-1.3 5.01-6.54-1.11-5.23-3.32-22.9-3.32-34.68z"/>
								<path id="&lt;Path&gt;" class="s11" d="m510.55 599.43v49.34c0 11.78-2.2 29.45-3.32 34.68-1.11 5.24 1.67 7.2 5.01 6.54 3.34-0.65 10.74-3.27 11.13-28.78 0.31-20.4 0.28-53.44 0.27-61.78z"/>
							</g>
							<g id="&lt;Group&gt;">
								<path id="&lt;Path&gt;" class="s12" d="m602.68 606.17c0 0-0.1 41.37 0.27 65.68 0.4 26.28 8.02 28.97 11.46 29.65 3.44 0.67 6.3-1.35 5.16-6.74-1.15-5.39-3.42-23.58-3.42-35.71 0-12.12 0-55.58 0-55.58z"/>
								<path id="&lt;Path&gt;" class="s12" d="m547.72 606.17c0 0 0.1 41.37-0.27 65.68-0.4 26.28-8.02 28.97-11.46 29.65-3.44 0.67-6.3-1.35-5.16-6.74 1.15-5.39 3.42-23.58 3.42-35.71 0-12.12 0-55.58 0-55.58z"/>
							</g>
							<path id="&lt;Path&gt;" class="s13" d="m558.06 605.5c0 2.78-2.25 5.03-5.03 5.03h-41.56c-2.78 0-5.03-2.25-5.03-5.03v-6.79c0-2.77 2.25-5.02 5.03-5.02h41.56c2.78 0 5.03 2.25 5.03 5.02z"/>
							<g id="&lt;Group&gt;">
								<path id="&lt;Path&gt;" class="s14" d="m631.01 490.37c0.29-7.64-12.82-8.22-12.82-8.22h-19.38-26.13-19.38c0 0-13.16 0.58-13.45 8.22-0.3 7.63 0.27 41.11-0.83 53.45-1.1 12.33-6.57 57.56 0.15 61.67 6.71 4.12 17.35 4.12 21.08 4.7 2.85 0.45 38.24 0.45 41.13 0 3.78-0.58 14.41-0.58 21.44-4.7 7.04-4.11 5.04-49.34 4.9-61.67-0.16-12.34 3-45.82 3.29-53.45z"/>
								<path id="&lt;Path&gt;" class="s13" d="m539.17 605.49c-6.72-4.11-1.25-49.34-0.15-61.67 1.1-12.34 0.53-45.82 0.83-53.45 0.29-7.64 13.45-8.22 13.45-8.22h-9.14c0 0-13.16 0.58-13.45 8.22-0.29 7.63 0.28 41.11-0.82 53.45-1.1 12.33-6.58 57.56 0.14 61.67 6.72 4.12 17.35 4.12 21.08 4.7 1.64 0.26 15.24 0.37 27.11 0.33-8.86-0.03-16.75-0.13-17.97-0.33-3.73-0.58-14.37-0.58-21.08-4.7z"/>
							</g>
						</g>
					</g>
				</g>
			</g>
		</g>
	</g>
</svg>